<?xml version="1.0" standalone="no"?>
<!DOCTYPE svg PUBLIC "-//W3C//DTD SVG 1.1//EN" "http://www.w3.org/Graphics/SVG/1.1/DTD/svg11.dtd" >
<!--
2013-9-30: Created.
-->
<svg>
<metadata>
Created by iconfont
</metadata>
<defs>

<font id="iconfont" horiz-adv-x="1024" >
  <font-face
    font-family="iconfont"
    font-weight="500"
    font-stretch="normal"
    units-per-em="1024"
    ascent="896"
    descent="-128"
  />
    <missing-glyph />
    
    <glyph glyph-name="ic-email" unicode="&#59117;" d="M167.02529738 805.875h969.046875L654.95386928 360.73660702999996 167.02529738 805.875zM1196.27976225 709.98883905v-628.41294608l-361.72767892 327.85714298L1196.27976225 710.04910703z m-1084.82142892 1e-8l370.40625-300.55580311L111.45833333 81.57589297000004V710.04910703z m413.91964297-353.53125001l129.57589297-112.70089298 139.21875001 112.70089299L1172.9561013-37.875H111.45833333l413.91964297 394.33258905z"  horiz-adv-x="1316" />

    
    <glyph glyph-name="ic-prompt" unicode="&#59118;" d="M927.69595947 179.46416571999998a1700.41742578 1700.41742578 0 0 0-45.98153877 69.26333115 773.22006035 773.22006035 0 0 0-86.93632792 191.33399971 381.50391006 381.50391006 0 0 0-16.19142804 109.90064092c0 36.45717012-4.9738377 69.68663614-14.55112001 99.31800849a293.77388408 293.77388408 0 0 1-38.8911753 79.26391934A239.00876016 239.00876016 0 0 1 667.94523945 786.53689248 260.65024365 260.65024365 0 0 1 598.25860332 822.14745176a318.06102656 318.06102656 0 0 1-84.66106201 11.74672178L511.48101464 834h-0.10582646l-2.11652578-0.10582646a317.42606865 317.42606865 0 0 1-84.60814922-11.74672179A261.28520156 261.28520156 0 0 1 354.85805058 786.48397881c-21.9060501-15.66229658-41.00770195-34.92268769-57.04039071-57.99282715a291.92192402 291.92192402 0 0 1-38.99700089-79.31683213 319.75424737 319.75424737 0 0 1-14.55112002-99.26509482c0-37.25086729-5.39714268-73.7609502-16.1914289-109.95355459A779.19924727 779.19924727 0 0 0 141.08886934 248.78041055000006c-16.9322124-26.72114766-32.2241168-49.8441999-45.92862598-69.21041836a29.89593721 29.89593721 0 0 1-2.11652666-35.82221133c2.85731104-4.39179258 6.45540557-7.93697432 10.90011182-10.5826333l0.26456572-0.05291279c2.32817959-1.48156875 5.29131622-1.90487373 8.20154092-2.53983164 1.42865508-0.26456573 2.9631375-1.26991582 4.39179257-1.26991583H906.10738877c1.53448154 0 2.91022383 1.05826289 4.39179258 1.26991583 2.9631375 0.63495791 5.87336133 1.05826289 8.20154092 2.53983164h0.31747851a33.86442481 33.86442481 0 0 1 10.90011182 10.63554609 32.9119875 32.9119875 0 0 1 4.86801123 16.24434082 30.79546084 30.79546084 0 0 1-7.09036436 19.57787051m-277.52954238-137.8917044H363.00667783c-4.33887979 0-3.12187675-5.6087956 3.703921-16.77347226 6.87871143-11.11176474 17.30260459-23.38761797 31.32459316-36.8275623 13.9690749-13.38703066 30.58380878-25.66288477 49.57963418-36.77464864 19.10165185-11.11176474 39.5261332-16.77347315 61.11470391-16.77347315 0.89952363 0 1.74613448 0.37039219 2.6456581 0.42330586 0.89952363-0.05291279 1.74613448-0.42330498 2.64565811-0.42330586 21.5885707 0 41.96013838 5.6617084 61.16761757 16.77347315 18.9429126 11.16467753 35.61055927 23.44053164 49.57963419 36.77464864 13.9690749 13.43994346 24.44588174 25.66288477 31.21876669 36.8275623 6.87871143 11.21759033 8.14862724 16.77347315 3.703921 16.77347226h-9.52436865"  horiz-adv-x="1024" />

    
    <glyph glyph-name="ic-home" unicode="&#59119;" d="M693.66845-35.157151h147.757244V340.511891c0 25.444807 20.260342 46.046233 45.227633 46.046233h50.480315l-391.56352 398.794484-391.222437-398.794484h39.292785c24.967291 0 45.159416-20.601426 45.159417-46.046233v-375.669042h153.623875V220.655253c0 25.444807 20.192126 46.046233 45.159417 46.046233h210.857638c24.967291 0 45.227633-20.601426 45.227633-46.046233v-255.812404zM886.653327-127.249617H648.440817a45.70515 45.70515 0 0 0-45.159417 46.046233v255.812404H482.810812v-255.812404a45.70515 45.70515 0 0 0-45.227633-46.046233H193.64047a45.70515 45.70515 0 0 0-45.227633 46.046233V294.465659H45.269276A45.227633 45.227633 0 0 0 3.452475 322.980215a46.660183 46.660183 0 0 0 9.754979 50.139231L513.71295 883.038838a45.978016 45.978016 0 0 0 63.918993 0l500.710146-509.987609c12.961162-13.165812 16.781294-32.948638 9.75498-50.139231a45.227633 45.227633 0 0 0-41.748585-28.446339H931.880961v-375.669043a45.636933 45.636933 0 0 0-45.227634-46.046233z"  horiz-adv-x="1092" />

    
    <glyph glyph-name="ic-permissions" unicode="&#59120;" d="M478.13973333-63.63658026999997H472.8069024c-16.0627456 0.25700373-33.60326293 0.77101227-52.62155307 1.67052587a1949.3747456 1949.3747456 0 0 0-78.51469866 5.9753408c-27.62792107 2.76279253-54.93458773 5.525584-82.04850134 8.73813333a2294.40250987 2294.40250987 0 0 0-73.88862826 9.95890134 635.05669013 635.05669013 0 0 0-53.00705814 9.5091456l-5.332832 1.28501973a208.62293333 208.62293333 0 0 0-3.0197952 17.34776427c-3.1482976 22.16658773-1.60627413 52.36454933 4.497568 89.6301184 2.6985408 15.86999253 8.3526272 21.84533333 12.46469014 24.86512853 12.5289408 9.44489387 27.37091733 17.2835136 44.2046752 23.1946048 19.6608 7.0033568 40.73512107 13.4284544 64.44373333 19.6608a296.19701973 296.19701973 0 0 1 76.2659136 31.6114816c19.40379627 11.56517653 33.2177568 22.10233707 43.43366293 33.02500373 11.88643093 12.40043947 20.75306667 25.7646432 26.27865067 39.83560854 5.2043296 13.36420373 7.9028704 27.5636704 7.9028704 42.0201408 0 9.5091456-0.38550613 19.91780373-1.28501973 32.18974186-2.50578773 27.82067413-12.9786976 50.56552107-31.16172587 67.46352854a557.89126293 557.89126293 0 0 1-33.6675136 28.78443946 23.13035307 23.13035307 0 0 0-2.05603093 3.34105067 374.39046293 374.39046293 0 0 0-9.44489387 20.8173184l-9.76614933 29.16994453-8.99513707 25.95739627-23.45160853 5.91109013a65.79300373 65.79300373 0 0 0-2.18453334 2.63429014 48.18823573 48.18823573 0 0 0-4.30481493 10.79416533 30.32646293 30.32646293 0 0 0-1.86327893 11.11541867 56.2838592 56.2838592 0 0 0 3.34105173 14.00671466 21.97383573 21.97383573 0 0 0 4.0478112 6.8748544l11.05116907 13.42845547v17.21926187c0 23.58010987 1.28501973 46.903216 3.7265568 69.2625568 2.44153707 18.632784 6.81060373 39.1930976 12.9786976 60.84567893 5.33283093 18.632784 13.4284544 34.95253333 24.7366272 49.9230112 10.02315307 13.62120747 21.0100704 24.92938027 32.768 33.53901227a176.17618773 176.17618773 0 0 0 77.48668266 32.38249386c8.73813333 1.28501973 17.92602347 2.248784 28.9129408 2.76279254l5.46133334 0.38550613 7.06760853-0.38550613c10.92266667-0.51400747 20.1105568-1.41352107 28.5916864-2.6985408 13.74970987-2.31303573 27.17816427-6.03959253 39.83560747-11.17967147a158.05741227 158.05741227 0 0 0 71.12583573-55.4485952c10.98691733-14.4564704 18.88978773-30.519216 24.2868704-49.152 6.1038432-21.33132587 10.53716053-42.1486432 12.85019627-60.07466667 2.57003947-22.9376 3.8550592-46.51770987 3.85505813-70.16207146v-17.21926187l11.11541973-13.42845547a23.45160747 23.45160747 0 0 0 4.49756907-8.09562346c1.28501973-3.46955307 2.248784-7.71011733 2.8270432-12.72169387a28.78443947 28.78443947 0 0 0-1.73477653-10.79416533c-2.44153707-7.71011733-4.11206293-10.7299136-4.11206294-10.7299136l-3.08404693-3.85505814-23.5158592-5.84683946s-14.77772587-44.65443093-17.99027413-54.0350752c-2.9555456-7.06760747-6.1038432-14.19946667-9.31639254-20.68881494-1.22076907-2.3772864-1.9275296-3.46955307-1.7990272-3.46955306-13.29995307-10.60141227-24.4153728-20.1105568-34.1172704-29.1699456-18.24727893-16.9622592-28.72018773-39.96410987-31.35447893-68.42729387a441.27573333 441.27573333 0 0 1-1.09226667-31.22597653c0-14.4564704 2.63429013-28.65593707 7.9028704-42.21289387a120.6633408 120.6633408 0 0 1 27.56367147-41.05637653c-14.4564704-23.0661024-22.10233707-49.6017568-22.10233813-77.03692587v-165.12501973c0-8.73813333 0.4497568-19.0825408 1.028016-29.29844694l-30.45496427-1.92752853c-19.27529387-0.8995136-36.88006293-1.41352107-52.94280853-1.6062752l-8.73813334-0.06425067v-4.94732586l-2.248784 4.94732586z m297.6105408 641.86729387a113.91698773 113.91698773 0 0 1-10.08740373 21.4598272c-0.38550613 22.0380864-1.86327893 44.33317653-4.304816 66.2427616a521.20395307 521.20395307 0 0 1-15.93424213 75.04514453 244.4107296 244.4107296 0 0 1-39.5786048 80.18522347 252.6348544 252.6348544 0 0 1-54.0993248 54.8060864 270.4966272 270.4966272 0 0 1-59.1109024 32.96075307A283.34682347 283.34682347 0 0 1 535.77286293 925.18600747C534.3593408 925.37876053 499.7923136 930.13333333 480.260016 930.13333333c-21.84533333 0-51.65778773-4.49756907-53.0070592-4.69032106a281.41929387 281.41929387 0 0 1-57.5046272-16.31974934 273.06666667 273.06666667 0 0 1-59.75341227-33.28200853c-19.91780373-14.5849728-37.90807893-32.768-53.45681493-54.0993248-17.99027413-23.77286293-31.48298027-50.9510272-40.09261227-80.95623573-7.51736427-26.2144-12.85019627-51.72203947-15.99849386-75.8161568-2.31303573-21.33132587-3.79080747-43.30516053-4.1763136-65.27899627-4.04781227-6.6821024-7.26036053-13.49270613-9.63764694-20.17480747-4.11206293-10.92266667-6.8748544-22.68059627-8.35262826-35.7235456-1.73477653-15.42023573 0-32.1897408 5.39708266-49.98726186 5.26858027-16.9622592 11.69367893-30.26221227 19.6608-40.7993728 6.81060373-8.99513707 13.62120747-16.12699627 21.0100704-22.1665888l3.53380374-2.6985408 1.9275296-1.15651734 5.01157653-14.5849728c3.8550592-9.5091456 8.09562347-19.01829013 12.97869867-28.78443946 7.51736427-14.77772587 16.5125024-26.3429024 27.5636704-35.1452864 10.60141227-8.4811296 20.17480747-16.5125024 28.27043093-24.02986667a15.8057408 15.8057408 0 0 0 1.28501973-5.20432853c0.64250987-8.99513707 0.8995136-17.09076053 0.8995136-24.5438752a19.27529387 19.27529387 0 0 0-1.28501973-7.19610987 29.1699456 29.1699456 0 0 0-6.4250976-8.4811296 105.37160747 105.37160747 0 0 0-22.55209387-16.31974827c-15.0347296-8.99513707-32.12549013-16.0627456-50.88677653-20.94581973-26.40715307-7.0033568-50.11576427-14.19946667-72.28235307-22.0380864a262.7222592 262.7222592 0 0 1-70.67607893-37.45832213c-26.72840747-20.2390592-43.36941227-49.152-49.6017568-86.0963136-7.77436907-47.60997653-9.3806432-86.41756907-4.88307413-118.60730987 6.03959253-42.85540373 15.9342432-66.17850987 34.31002346-80.18522347 10.47290987-8.09562347 24.54387413-13.6854592 48.50949014-19.27529386 16.8337568-4.04781227 37.5225728-7.71011733 61.3596864-11.11541974 25.44338773-3.8550592 51.01527893-7.32461227 76.52291733-10.2801568 27.62792107-3.34105067 55.51284693-6.2323456 84.04028267-9.05938773 29.1699456-2.76279253 57.11912107-4.88307413 83.140768-6.29659627l11.7579296-0.51400746 0.1285024-1.28501974 106.84938026 0.06425067 5.01157654 1.22076907v0.192752l8.28837653 0.38550613c23.90136427 1.28501973 49.08774933 3.1482976 75.04514453 5.525584v-0.12850133l56.79786667 5.91109013-4.9473248 47.99548267c0 0.4497568-4.49756907 43.69066667-4.49756907 68.62004693v165.12501973c0 15.42023573 7.1318592 29.74820373 19.53229867 39.3216l18.76128533 14.7777248v23.5158592l1.99178134 36.43030614-24.8651296 15.0347296a108.77690987 108.77690987 0 0 0-21.5883296 15.93424213 27.62792107 27.62792107 0 0 0-5.84683947 7.90287147 19.59654933 19.59654933 0 0 0-1.3492704 7.3246112c0 7.4531136 0.25700373 15.61298773 0.83526293 23.58010986 0.3212544 3.7265568 1.028016 5.78258773 0.8995136 5.7825888 8.4811296 7.9028704 18.11877653 15.9342432 28.78443947 24.41537174 10.92266667 8.802384 19.9820544 20.43181227 27.69217173 35.65929493 4.6260704 9.2521408 8.86663573 18.7612864 12.85019627 28.39893333l4.94732587 14.4564704 1.99178026 1.28501974 3.66230614 2.6985408c7.06760747 5.84683947 13.94246293 13.1072 20.94581973 22.29509013 7.9028704 10.34440747 14.26371733 23.77286293 19.59654827 40.92787413 5.26858027 17.47626667 7.06760747 34.18152107 5.332832 49.6017568a143.66519253 143.66519253 0 0 1-7.96712214 34.43852587zM996.45239253-9.216000000000008v-34.95253333c0-13.49270613-11.56517653-24.54387413-25.82889493-24.54387414a25.25063573 25.25063573 0 0 0-25.7646432 24.54387414v34.95253333a44.20467413 44.20467413 0 0 0-22.10233707 38.22933333c0 25.05788267 21.4598272 45.48969387 47.86698027 45.48969387 26.3429024 0 47.86698027-20.43181227 47.86698133-45.48969387a44.20467413 44.20467413 0 0 0-22.0380864-38.22933333m106.2068704 164.67526293H855.7427456l2.05603093 27.37091734a108.7126592 108.7126592 0 0 0 108.07014934 93.61367893 108.84116053 108.84116053 0 0 0 95.3484544-55.32009493 30.26221227 30.26221227 0 0 1 41.05637653-11.5009248 29.6197024 29.6197024 0 0 1 11.56517653 40.60661973 168.98007893 168.98007893 0 0 1-147.97000746 85.83930987 169.62258773 169.62258773 0 0 1-168.08056534-147.19899627l-2.6985408-35.46654187c-0.06425067-1.28501973 0.38550613-2.44153707 0.4497568-3.66230506a54.8060864 54.8060864 0 0 1-31.48298026-49.2805024v-182.6012864c0-30.26221227 25.05788267-54.99883947 55.76985066-54.99883947h282.832816a55.3843456 55.3843456 0 0 1 55.7056 54.99883947v182.6012864a55.44859627 55.44859627 0 0 1-55.7056 54.99883946"  horiz-adv-x="1144" />

    
    <glyph glyph-name="ic-search" unicode="&#59121;" d="M208.457143 236.397714a323.730286 323.730286 0 0 0 0 457.289143 323.803429 323.803429 0 0 0 457.289143 0 323.730286 323.730286 0 0 0 0-457.289143 323.730286 323.730286 0 0 0-457.362286 0m779.702857-208.018285l-194.56 194.56c114.029714 167.643429 96.987429 398.409143-51.565714 546.962285a431.616 431.616 0 0 1-609.792 0 431.616 431.616 0 0 1 0-609.718857c148.553143-148.553143 379.318857-165.595429 547.035428-51.565714l194.56-194.56a80.822857 80.822857 0 1 1 114.322286 114.322286"  horiz-adv-x="1024" />

    
    <glyph glyph-name="ic-setting" unicode="&#59122;" d="M502.543059 300.453647c-49.392941 0-89.509647 40.357647-89.509647 90.051765 0 49.633882 40.176941 89.991529 89.509647 89.991529 49.392941 0 89.569882-40.357647 89.569882-89.991529 0-49.694118-40.176941-90.051765-89.569882-90.051765m0 270.275765a179.922824 179.922824 0 0 1-179.2-180.284236 179.922824 179.922824 0 0 1 179.2-180.224 179.922824 179.922824 0 0 1 179.2 180.224A179.922824 179.922824 0 0 1 502.543059 570.729412M743.363765 119.868235c0-24.214588 5.782588-47.344941 11.444706-64.090353l-93.123765-52.163764a363.218824 363.218824 0 0 1-38.249412 33.129411c-39.755294 29.816471-78.064941 44.935529-114.085647 44.93553-35.659294 0-73.788235-14.817882-113.242353-44.092235a342.136471 342.136471 0 0 1-37.827765-32.406589l-89.268705 50.477177c4.939294 14.938353 11.444706 39.152941 11.444705 64.210823 0 103.424-78.305882 192.512-179.380705 205.281883a497.362824 497.362824 0 0 0-6.505412 68.427294c0 23.130353 4.035765 52.645647 6.505412 68.547764 101.014588 12.769882 179.380706 101.797647 179.380705 205.221648 0 25.057882-6.384941 49.091765-11.38447 63.969882l96.37647 53.127529c8.011294-7.710118 21.263059-19.576471 37.647059-31.382588 38.972235-28.069647 76.498824-42.285176 111.435294-42.285176 34.514824 0 71.68 13.914353 110.47153 41.441882a378.88 378.88 0 0 1 37.707294 30.960941l92.099765-51.681882c-5.601882-16.745412-11.444706-39.875765-11.444706-64.150588 0-103.424 78.305882-192.451765 179.380706-205.221648 2.469647-16.022588 6.505412-45.718588 6.505411-68.547764 0-22.648471-3.734588-50.778353-6.505411-68.427294-101.014588-12.769882-179.380706-101.857882-179.380706-205.281883m269.974588 374.904471c-6.987294 37.345882-30.840471 61.44-60.837647 61.44h-4.216471a110.832941 110.832941 0 0 0-110.170353 111.134118c0 19.034353 9.517176 42.044235 9.577412 42.10447a77.763765 77.763765 0 0 1-25.780706 93.545412l-2.469647 1.686588L692.705882 875.52a83.124706 83.124706 0 0 1-90.352941-18.191059c-12.709647-13.251765-56.018824-50.898824-87.883294-50.898823-32.105412 0-75.715765 38.430118-88.425412 51.862588a83.425882 83.425882 0 0 1-55.838117 24.937412H361.411765c-9.396706-0.602353-18.070588-2.770824-28.611765-7.408942l-128.903529-71.68-1.807059-1.14447a77.703529 77.703529 0 0 1-25.961412-93.364706c0.361412-1.024 9.637647-23.130353 9.637647-42.285176 0-61.259294-49.392941-111.194353-110.110118-111.194353H70.475294c-29.515294 0-53.007059-24.094118-60.054588-61.560471C8.914824 486.279529 1.204706 442.729412 0 403.275294v-19.877647c1.204706-39.454118 8.975059-82.642824 10.480941-90.955294 6.987294-37.285647 30.840471-61.379765 60.837647-61.379765h4.276706a110.832941 110.832941 0 0 0 110.110118-111.194353c0-19.034353-9.216-41.261176-9.577412-42.10447a77.824 77.824 0 0 1 25.780706-93.545412l2.409412-1.626353 124.265411-69.933176a81.799529 81.799529 0 0 1 90.955295 19.275294c16.082824 17.648941 59.271529 54.091294 89.750588 54.091294 33.129412 0 77.462588-40.96 90.352941-55.17553 14.697412-16.384 37.225412-26.142118 60.295529-26.142117 11.143529 0 21.624471 2.288941 33.490824 7.589647l126.795294 70.836706 1.626353 1.14447a77.703529 77.703529 0 0 1 25.901176 93.364706c-3.614118 8.553412-9.637647 27.105882-9.637647 42.224941a110.832941 110.832941 0 0 0 110.110118 111.194353h4.999529c29.515294 0 53.127529 24.094118 60.114824 61.379765 1.084235 5.842824 10.661647 58.428235 10.661647 101.195294 0 45.176471-10.541176 100.653176-10.661647 101.195294"  horiz-adv-x="1024" />

    
    <glyph glyph-name="ic-name" unicode="&#59123;" d="M507.609478 808.569905c128.24381 0 228.644571-104.20419 228.644572-237.177905 0-127.463619-101.180952-233.862095-225.28-237.226667h-10.044953C376.488716 337.578667 278.964907 441.734095 278.964907 571.392c0 132.973714 100.449524 237.177905 228.644571 237.177905m312.953905-237.177905c0 178.95619-140.434286 324.608-312.953905 324.608C334.992335 896 194.606811 750.34819 194.606811 571.392c0-114.590476 53.979429-215.235048 145.310477-272.725333C212.892526 240.39619 122.536716 123.611429 96.887954-16.920381a46.518857 46.518857 0 0 1-0.78019-8.289524c0-18.822095 11.849143-39.936 34.620952-43.983238l0.682667-0.146286h7.363047c21.455238 0 37.839238 13.750857 41.935239 35.108572 29.45219 159.451429 165.595429 277.601524 323.535238 280.966095h6.680381c170.715429 0 309.638095 145.603048 309.638095 324.656762M926.71805-30.329905c-20.48 109.32419-85.479619 207.286857-183.344762 276.138667a45.251048 45.251048 0 0 1-23.893334 7.119238 39.740952 39.740952 0 0 1-34.767238-20.626286c-12.824381-22.040381-7.216762-48.225524 12.580572-60.611047 79.09181-56.953905 129.414095-132.827429 145.651809-219.37981 4.047238-21.26019 20.48-35.011048 41.886476-35.011047h7.509334l0.78019 0.146285c19.894857 4.096 37.936762 24.673524 33.645714 52.224"  horiz-adv-x="1024" />

    
    <glyph glyph-name="ic-lock" unicode="&#59124;" d="M512 341.333333c-45.689905 0-82.895238-40.71619-82.895238-90.843428 0-33.255619 16.286476-63.049143 42.715428-79.140572v-84.699428c0-24.234667 18.041905-43.983238 40.17981-43.983238 22.137905 0 40.17981 19.748571 40.17981 43.983238V171.398095c26.477714 16.042667 42.715429 45.83619 42.715428 79.09181 0 50.127238-37.205333 90.843429-82.895238 90.843428M152.429714 567.198476a40.472381 40.472381 0 0 1 29.257143-12.531809c22.186667 0 40.082286 17.554286 41.350095 40.277333 29.403429 127.75619 138.48381 216.941714 265.411048 216.941714 96.792381 0 187.196952-54.076952 235.52-140.239238a40.862476 40.862476 0 0 1 37.351619-25.161143c22.528 0 40.813714 18.919619 40.813714 42.179048a42.130286 42.130286 0 0 1-7.119238 23.747048C731.769905 825.685333 614.302476 896 488.448 896 317.537524 896 174.811429 777.167238 141.409524 607.232a162.377143 162.377143 0 0 1-0.633905-3.120762L138.971429 593.188571l1.560381-0.146285c0.975238-9.752381 5.12-18.822095 11.897904-25.84381M831.73181 10.093714c0-33.499429-3.705905-37.351619-36.08381-37.351619H217.039238c-32.329143 0-36.035048 3.85219-36.035048 37.351619v368.64c0 33.450667 3.705905 37.302857 36.08381 37.302857h578.56c32.377905 0 36.08381-3.85219 36.08381-37.351619v-368.591238z m8.435809 492.495238H172.617143c-41.155048 0-74.118095-33.401905-75.093333-76.214857v-464.213333c0.975238-42.617905 33.938286-75.971048 75.093333-75.971048h667.550476c41.447619 0 75.142095 34.913524 75.142095 77.824v460.8c0 42.910476-33.694476 77.775238-75.142095 77.775238z"  horiz-adv-x="1024" />

    
    <glyph glyph-name="ic-arrow-right" unicode="&#59125;" d="M753.06153887 389.53846114a64.52307685 64.52307685 0 0 1-19.5923083 47.90769258L383.6461537 780.20769258a67.77692316 67.77692316 0 0 1-94.43076942 0 64.52307685 64.52307685 0 0 1 0-92.4923083L599.78461572 383.30769258 290.53076943 80.28461572000003a64.52307685 64.52307685 0 0 1 0-92.4923083c26.03076943-25.61538428 68.33076943-25.61538428 94.43076944 0l349.82307686 342.76153886a64.52307685 64.52307685 0 0 1 18.27692313 59.0538463z"  horiz-adv-x="1024" />

    
    <glyph glyph-name="ic-arrow-down" unicode="&#59126;" d="M867.92844793 116.90658105a71.44056207 71.44056207 0 0 0-53.04385117 21.69278871L435.37577438 525.92679488a75.04325152 75.04325152 0 0 0 0 104.55464194 71.44056207 71.44056207 0 0 0 102.40835928 0L874.82721464 286.61624269000004 1210.33723628 629.02503052a71.44056207 71.44056207 0 0 0 102.4083593 0c28.3615963-28.82151405 28.3615963-75.65647483 0-104.55464191L933.23677267 137.14296347000004a71.44056207 71.44056207 0 0 0-65.3849778-20.23638242z"  horiz-adv-x="1755" />

    
    <glyph glyph-name="ic-project" unicode="&#59251;" d="M96.98461531-96a64.98461531 64.98461531 0 0 0-64.98461531 64.98461531V799.01538469A64.98461531 64.98461531 0 0 0 96.98461531 864h362.21538469a64.98461531 64.98461531 0 0 0 51.39692344-25.10769188l55.75384593-71.85230812a64.98461531 64.98461531 0 0 1 51.32307657-25.10769187h457.03384593a64.98461531 64.98461531 0 0 0 64.98461626-64.98461625v-707.96307657a64.98461531 64.98461531 0 0 0-64.98461625-64.98461531H96.98461531z m162.46153875 477.93230813c35.88923063 0 64.98461531 28.8 64.98461531 64.24615312s-29.09538469 64.24615406-64.98461531 64.24615406-64.98461531-28.8-64.98461531-64.24615406 29.09538469-64.24615406 64.98461531-64.24615313z m194.21538469 128.49230718a64.24615406 64.24615406 0 1 1 0-128.49230719h488.86153781a64.24615406 64.24615406 0 0 1 0 128.49230719H453.66153875zM259.44615406 156.92307656000003c35.88923063 0 64.98461531 28.8 64.98461532 64.24615406 0 35.52-29.09538469 64.24615406-64.98461532 64.24615407s-64.98461531-28.72615406-64.98461531-64.24615406c0-35.44615406 29.09538469-64.24615406 64.98461531-64.24615407z m194.21538469 128.49230813a64.24615406 64.24615406 0 0 1 0-128.49230813h488.86153781a64.24615406 64.24615406 0 1 1 0 128.49230813H453.66153875z"  horiz-adv-x="1182" />

    
    <glyph glyph-name="ic-members" unicode="&#59253;" d="M505.3822464-51.62327253000001h1.8632512l5.39700267 0.06425066A1446.58954987 1446.58954987 0 0 1 640.50007147-44.10601813000005c26.53526507 2.762752 53.00627947 5.52550293 79.3487936 8.67375466 23.83676267 2.8912512 47.6092768 6.1680032 71.3175392 9.76600534a602.2798336 602.2798336 0 0 1 57.43953173 10.7940064c0.8995008 4.04775253 1.9275008 9.63750507 3.01975147 17.34750933 3.01975147 21.90926187 1.54200107 51.78552853-4.3690016 88.6650496-2.57000107 15.67700907-8.22400427 21.58801173-12.2075072 24.6720128a159.66133867 159.66133867 0 0 1-43.11177387 23.0015136 772.67092693 772.67092693 0 0 1-62.57953493 19.33925973 284.88465707 284.88465707 0 0 0-74.1445408 31.22551787 191.78635627 191.78635627 0 0 0-42.4692736 32.96026773 119.5050656 119.5050656 0 0 0-25.0575136 38.6785216 115.650064 115.650064 0 0 0-7.71000427 41.5055232c0 9.4447552 0.32125013 19.7890112 1.09225067 30.96851734 2.57000107 28.20576533 12.7215072 50.5647776 30.32601706 67.26978666 9.31625493 8.80225493 20.17451093 18.24701013 33.1530176 28.784016-0.12850027 0 0.64250027 1.15650027 1.92750187 3.53375254 3.01975147 6.36075307 6.1037536 13.29975787 8.93075413 20.23876053a4484.65248107 4484.65248107 0 0 1 9.4447552 28.59126613l8.09550507 24.80051414 22.744512 5.7825024a56.73278187 56.73278187 0 0 1 3.08400213 3.85500266s0.83525013 0.32125013 4.04775254 10.72975574a29.6835168 29.6835168 0 0 1 1.67050026 10.7940064 52.9420288 52.9420288 0 0 1-2.69850133 12.52875626 24.0937632 24.0937632 0 0 1-4.49750187 8.28825494l-10.66550613 13.10700693v16.89776c0 23.32276267-1.28500053 46.58127573-3.7265024 69.26153813a426.49173547 426.49173547 0 0 1-12.52875627 59.43128214 148.1605824 148.1605824 0 0 1-23.64401386 48.63727786 151.0518336 151.0518336 0 0 1-32.51051734 33.92401814 168.84909333 168.84909333 0 0 1-36.8152704 20.94551146 176.494848 176.494848 0 0 1-38.80702186 10.98675627 261.24064427 261.24064427 0 0 1-27.75601494 2.762752l-6.42500373 0.32125013-5.1400032-0.32125013a261.4976448 261.4976448 0 0 1-28.07726507-2.8270016 170.06984427 170.06984427 0 0 1-75.493792-31.9965184c-11.56500587-8.5452544-22.03776213-19.46776107-31.86801813-33.1530176-11.11525653-14.97025813-18.8895104-30.90426667-24.0937632-49.40827733-6.03950293-21.2667616-10.28000533-41.5697728-12.65725653-60.20228374-2.3772512-21.716512-3.59800213-44.97502507-3.59800214-68.36203733v-16.89776l-10.66550613-13.10700693a22.48751253 22.48751253 0 0 1-4.04775253-6.93900374 56.1545312 56.1545312 0 0 1-3.21250134-13.94225813c0-0.64250027-0.25700053-3.91925227 1.7990016-11.11525547 2.44150187-7.9670048 4.2405024-10.66550613 4.304752-10.7940064 0.9637504-1.28500053 1.73475093-2.24875093 2.4415008-3.01975146l23.965264-6.1037536 7.1960032-24.86476374c3.08400213-9.5090048 6.23225387-19.08226027 9.4447552-28.59126613 2.8270016-6.93900373 5.91100373-13.87800747 9.18775574-20.68851093 1.28500053-2.57000107 2.24875093-3.66225173 2.24875093-3.66225174 12.2075072-9.83025493 23.1300128-19.27501013 32.5105184-28.2057664 17.66875947-16.70500907 27.8202656-39.06402133 30.2617664-66.43453653 0.8995008-12.07900693 1.28500053-22.35901227 1.28500053-31.80376747 0-14.1992576-2.63425173-28.14151573-7.71000426-41.37702293-5.33275307-13.7495072-13.87800747-26.9207648-25.44301334-39.1925216-9.83025493-10.66550613-23.38701333-21.202512-42.14802346-32.5105184-22.230512-13.49250773-47.1595264-24.0295136-74.0802912-31.2255168-22.74451307-6.1037536-43.24027413-12.40025707-62.7080352-19.4035104-16.38375893-5.91100373-30.84001707-13.6852576-43.0475232-23.0015136-3.98350187-3.08400213-9.63750507-8.9950048-12.2075072-24.73626347-5.97525333-36.8152704-7.38875413-66.69153707-4.43325227-88.66504853 1.09225067-7.71000427 2.12025067-13.29975787 3.01975147-17.28325973l5.33275306-1.28500054c13.6852576-3.276752 31.03276693-6.42500373 51.65702827-9.4447552 24.15801387-3.66225173 47.99477653-6.93900373 71.83154027-9.830256 26.34251413-3.21250133 52.8135296-5.91100373 79.67004373-8.67375466a1458.28305707 1458.28305707 0 0 1 127.4720704-7.45300374l5.97525333-0.06425066h1.92750187z m4.49750293-95.02580267H452.88996693l-0.0642496 1.3492512-11.372256 0.514a2025.16112 2025.16112 0 0 0-80.76229546 6.1680032 4712.22610667 4712.22610667 0 0 0-81.7260448 8.8665056c-24.86476373 3.01975147-49.66527787 6.42500373-74.40154134 10.21575573-23.0657632 3.3410016-43.24027413 7.067504-59.62403306 10.9225056-23.1942624 5.52550293-36.8152704 10.98675627-47.03102614 19.01801067-17.73301013 13.81375787-27.4347648 36.7510208-33.21726826 79.02754347-4.43325227 31.73951787-2.8270016 70.03253867 4.6902528 116.93506453 6.03950293 36.49402027 22.230512 64.95678613 48.1875264 84.81004693 19.91751147 15.35575893 42.9832736 27.8202656 68.61903786 37.00802134 21.97351253 7.90275413 44.97502507 15.0345088 70.2252896 21.7807616 18.24701013 4.88300267 34.8877696 11.88625707 49.47252694 20.68851093 13.36400747 8.095504 19.3392608 13.29975787 22.03776213 16.19100907a28.270016 28.270016 0 0 1 6.23225387 8.4810048 19.8532608 19.8532608 0 0 1 1.28500053 7.19600426c0 7.38875413-0.25700053 15.42000853-0.8995008 24.22226347a16.5122592 16.5122592 0 0 1-1.28500053 5.46125333 524.9227904 524.9227904 0 0 1-27.49901547 23.7082624 102.8643072 102.8643072 0 0 0-26.72801493 34.63076907 463.0500064 463.0500064 0 0 0-12.59300694 28.39851627l-0.9637504 2.63425173L261.42486187 433.464496a56.41153173 56.41153173 0 0 0-1.92750187 1.28500053l-3.53375147 2.69850134a128.30732053 128.30732053 0 0 0-20.17451093 21.5880128 129.91357227 129.91357227 0 0 0-19.08226133 40.28477226 124.38806933 124.38806933 0 0 0-5.2685024 49.27977707c1.4135008 12.7215072 4.1762528 24.5435136 8.15975466 35.27326933 2.24875093 6.553504 5.39700267 13.29975787 9.31625494 19.91751147 0.38549973 21.716512 1.79900053 43.3687744 4.11200213 64.50703573A524.28029013 524.28029013 0 0 0 248.5748544 743.1496672000001c8.35250453 29.55501653 21.39526187 56.41153173 38.87127147 79.798544 15.0345088 20.8170112 32.6390176 38.93552107 51.9140288 53.3275296a264.71014613 264.71014613 0 0 0 110.0603104 48.1875264V929.15352l46.90252586 0.8352512c0 0.19274987 5.39700267 0.19274987 9.25200534 0A40.73452267 40.73452267 0 0 0 509.87974933 930.1172704l52.68502827-0.70674987-0.25699947-5.33275306a261.69039467 261.69039467 0 0 0 108.1970592-47.80202667c19.46776107-14.39200747 37.07227093-32.574768 52.55652907-53.97002987 16.9620096-22.87301227 30.06901653-49.66527787 38.42152107-79.02754346 7.26025387-26.08551467 12.46450667-50.9502784 15.42000853-74.1445408 2.44150187-21.90926187 3.790752-43.69002453 4.2405024-65.5350368 3.98350187-6.6820032 7.26025387-13.81375787 9.7660064-21.13826134 3.46950187-9.31625493 6.23225387-21.202512 7.71000427-33.9240192 1.67050133-15.22725867 0-31.6110176-5.1400032-48.83002666-5.1400032-17.0262592-11.372256-30.06901653-18.95376107-40.34902187a128.24307093 128.24307093 0 0 0-20.4315104-21.97351253l-3.53375253-2.69850134a93.80505173 93.80505173 0 0 0-1.9275008-1.28500053l-3.98350187-11.8220064-0.96375147-2.57000213a448.9149984 448.9149984 0 0 0-12.400256-27.9487648c-7.5172544-15.0987584-16.19100907-26.34251413-26.7922656-35.08051947a477.57051413 477.57051413 0 0 1-28.01301546-24.22226347c0.0642496 0-0.64250027-1.99175147-1.028-5.84675306a331.08043307 331.08043307 0 0 1-0.8352512-23.38701334c0-2.57000107 0.4497504-4.94725227 1.3492512-7.32450453a27.3705152 27.3705152 0 0 1 5.78250346-7.96700373c3.08400213-3.276752 9.12350507-8.4810048 22.48751254-16.57650987 14.52050773-8.80225493 31.2255168-15.80550827 49.47252693-20.68851093 25.25026347-6.74625387 48.1875264-13.87800747 70.16103893-21.7807616 25.70001387-9.18775467 48.83002667-21.6522624 68.74753814-36.94377067 25.8927648-19.91751147 42.0837728-48.44452693 48.05902613-84.68154667v-0.19275093c7.581504-46.90252587 9.12350507-85.13129707 4.75450347-116.93506453-5.78250347-42.27652373-15.48425813-65.2137856-33.4100192-79.15604374-10.02300587-7.90275413-23.6440128-13.36400747-46.90252587-18.8895104-16.25525867-3.8550016-36.49402027-7.581504-60.0095328-10.98675626-24.35076373-3.7265024-49.1512768-7.1317536-73.95179093-10.15150507-26.8565152-3.21250133-53.97002987-6.03950293-81.40479574-8.8665056-28.20576533-2.69850133-55.2550304-4.7545024-80.7622944-6.1680032l-8.35250453-0.38549973v-1.3492512l-50.75752747-0.12850027z"  horiz-adv-x="1024" />

    
    <glyph glyph-name="ic-user" unicode="&#59254;" d="M1078.40094827 124.10121492999997c-4.6724736-30.58346667-12.74311147-48.54518507-28.76302187-59.64989653-8.73813333-6.06814827-20.02488853-10.0731264-38.35069653-13.95674027a585.81902187 585.81902187 0 0 0-46.72474134-7.64586666c-4.18702187-0.60681493-7.58518507-1.03158507-15.17037013-1.8811264l-7.40314027-0.91022187-20.63170453-2.54862293 2.24521493 20.63170453c0.84954027 7.40314027 1.09226667 9.8910816 1.21362987 12.9858368 0.30340693 9.52699307 0 20.02488853-0.97090347 31.55437013l-1.39567466 15.77718507 15.77718613 1.941808 4.4904288 0.48545173 2.73066667 0.36408854 7.03905173 0.91022186c16.01991147 2.00248853 29.3698368 4.24770347 39.6856896 6.37155627a56.00900693 56.00900693 0 0 1 1.4563552 7.03905173c2.12385173 14.01742187 1.09226667 33.86026667-3.3981632 58.61831147-1.33499307 7.28177813-3.2768 10.0731264-6.4929184 12.31834027a121.84841493 121.84841493 0 0 1-31.73641493 15.10968853c-14.8062816 4.7938368-30.52278507 9.10222187-47.93837014 13.2892448a241.57297813 241.57297813 0 0 0-58.678992 22.08805973 152.97801493 152.97801493 0 0 0-34.10299306 23.66577707 88.5949632 88.5949632 0 0 0-21.1171552 29.30915627 80.2816 80.2816 0 0 0-6.5536 31.73641386c0 7.09973333 0.30340693 14.44219307 0.91022186 22.33078614a74.63822187 74.63822187 0 0 0 25.9716736 51.39721386c7.34245973 6.25019307 15.89854827 12.9251552 27.00325974 20.87442987-3.0947552-2.60930347-2.06317013-1.3956736-1.6990816-0.66749653 2.42725973 4.42974827 4.8545184 9.34494827 6.7356448 13.3499264l6.6749632 18.1437632 8.0099552 22.02737706 19.11466666 4.36906667a20.75306667 20.75306667 0 0 1 2.54862187 5.82542293 19.23602987 19.23602987 0 0 1 1.03158507 4.00497707 27.6100736 27.6100736 0 0 1-1.82044374 7.09973333 8.55608853 8.55608853 0 0 1-1.8204448 3.03407467l-6.00746666 6.5536-4.24770347 10.98334827v8.49540693c0 15.71650347-0.97090347 31.49368853-2.79134827 46.48201493a259.41333333 259.41333333 0 0 1-9.40562986 39.92841494 90.47608853 90.47608853 0 0 1-16.99081494 31.3116448c-7.40314027 9.10222187-15.17037013 16.384-23.54441493 21.96669546a128.94814827 128.94814827 0 0 1-27.30666667 13.89605974 143.63306667 143.63306667 0 0 1-28.76302186 7.28177813l-2.36657814 0.18204373-2.66998506 0.2427264-11.2867552 1.21362987-2.97339307 10.92266667-0.78885867 2.8520288a243.51478507 243.51478507 0 0 1-3.03407466 10.86198613l-1.09226667 2.7913472a162.92977813 162.92977813 0 0 1-12.8644736 28.76302293l-13.83537813 24.3939552h30.28005973l7.9492736-0.42477013 1.6990816-0.1213632 5.46133333-0.36408853 7.40314134-0.78885974 8.43472533-1.03158506 1.39567467-0.1820448 1.3956736-0.18204374c16.2626368-2.42725973 31.97914027-6.3715552 46.78542186-11.8328896 15.53445973-5.58269653 31.0082368-13.3499264 45.8145184-23.18032533 15.53445973-10.31585173 29.6732448-23.36237013 41.87022294-38.53274133 13.89605973-16.6267264 24.4546368-36.0448 31.1902816-57.344 5.76474027-18.2651264 9.8910816-35.8627552 12.31834026-52.79288854 1.7597632-14.5028736 2.79134827-29.06642987 3.2161184-43.56930346a100.85262187 100.85262187 0 0 0 13.4712896-39.5643264c1.5170368-11.83288853 0-24.3332736-4.36906666-37.4404736-4.24770347-12.37902187-9.40562987-22.20942187-16.08059307-30.28005974a102.91579307 102.91579307 0 0 0-17.35490347-16.56604373l-2.18453333-1.39567467-2.48794133-6.6749632c-3.5195264-7.88859307-6.7963264-14.5635552-10.49789547-21.42056213a79.79614827 79.79614827 0 0 0-22.69487467-26.3964448 381.44379307 381.44379307 0 0 1-19.4180736-14.8669632c-0.42477013-5.46133333-0.60681493-10.92266667-0.60681493-15.95922987 0.42477013-2.06317013 1.3956736-3.2768 3.2768-5.09724373 2.60930347-2.48794027 7.88859307-6.06814827 15.89854827-10.31585173 10.74062187-5.88610347 23.1803264-10.55857813 36.89434026-13.83537814 19.7821632-4.7331552 37.6225184-9.7090368 54.61333334-15.17037013 20.26761493-6.4929184 38.65410347-15.35241493 54.61333333-26.2750816 20.87442987-14.32082987 34.2850368-35.01321493 39.86773333-63.41214827 6.25019307-33.07140693 7.52450347-60.3780736 3.94429654-83.4977184zM489.1837632-116.31881493000003l-51.94334827-1.5170368h-9.7697184l-34.5884448 0.84954026a1394.2784 1394.2784 0 0 0-21.2385184 0.91022294 2008.7390816 2008.7390816 0 0 0-77.42957013 5.70405866 4380.17137813 4380.17137813 0 0 0-78.15774827 8.3740448 2275.8589632 2275.8589632 0 0 0-71.11869653 9.526992 666.28266667 666.28266667 0 0 0-57.1619552 10.1944896c-21.96669653 5.0972448-34.5884448 10.0731264-43.99407467 17.23354027-16.6267264 12.62174827-25.60758507 33.49617813-31.1296 72.63573333-4.12634027 29.5518816-2.66998507 65.11122987 4.55111147 108.92325974 5.64337813 33.37481493 20.93511147 59.64989653 45.26838507 77.91502186a242.3011552 242.3011552 0 0 0 65.17191146 34.2243552c20.93511147 7.40314027 42.8411264 14.01742187 67.1137184 20.32829654 17.71899307 4.61179307 33.92094827 11.2867552 48.18109654 19.6608 10.31585173 6.12882987 17.7796736 11.5294816 21.78465173 15.77718506a29.79460693 29.79460693 0 0 1 6.3108736 8.495408 20.63170347 20.63170347 0 0 1 1.39567467 7.58518507 327.07318507 327.07318507 0 0 1-0.84954134 22.51282987c-7.64586667 11.7115264-14.9276448 18.44717013-28.58097706 29.2484736a94.17765973 94.17765973 0 0 0-25.0007712 31.79709653 412.51271147 412.51271147 0 0 0-12.13629547 26.69985173l-4.06565973 11.7115264c-3.2768 3.70157013-3.2768 3.70157013-6.7356448 6.250192a119.90660693 119.90660693 0 0 0-18.75057707 19.7821632 118.32888853 118.32888853 0 0 0-17.90103787 37.01570347 111.04711147 111.04711147 0 0 0-4.8545184 45.02565973c1.27431147 11.6508448 3.88361493 22.63419307 7.52450454 32.10050347 2.12385173 6.06814827 4.8545184 12.01493333 8.37404373 17.8403552 1.27431147 23.0589632 2.60930347 42.90180693 4.7938368 62.5019264 2.85202987 22.02737813 7.82791147 45.20770347 14.8062816 69.54097707 7.9492736 27.30666667 20.38897813 52.1860736 36.77297813 73.66731946 14.5028736 19.6608 31.1902816 36.40888853 49.51608854 49.75881387A252.4956448 252.4956448 0 0 0 376.86234027 879.94974827l3.7622528 4.55111146 11.2867552 0.30340694 29.79460693 0.60681493a48.72722987 48.72722987 0 0 0 9.34494827 0.24272533c4.8545184 0.1820448 8.2526816 0.1820448 10.31585173 0l43.87271147-0.66749546 4.12634026-5.2792896a252.4349632 252.4349632 0 0 0 100.4278528-43.8120288c18.32580693-13.3499264 35.07389653-30.15869653 49.57677014-49.88017814a230.10417813 230.10417813 0 0 0 35.19525866-68.9341632l1.51703787-4.6724736c1.03158507-3.58020693 1.7597632-6.25019307 3.33748053-12.80379306l0.78885974-3.1554368c3.0340736-12.07561493 5.40065173-23.1196448 7.28177813-33.37481494l0.78885867-4.55111146c1.5170368-8.0099552 2.06317013-11.10471147 2.54862293-15.35241494 2.24521493-19.7821632 3.58020693-39.74637013 4.00497707-59.77125866 4.36906667-8.92017813 7.28177813-15.04900693 9.28426666-20.99579307 3.64088853-9.28426667 6.18951147-20.20693333 7.52450347-31.91845867 1.5777184-13.83537813 0-28.94506667-4.8545184-45.02565973-4.9758816-15.53445973-10.74062187-27.54939307-17.9010368-36.95502187a120.02797013 120.02797013 0 0 0-19.7214816-20.51034133l-2.79134827-2.06317013a48.60586667 48.60586667 0 0 1-5.46133333-10.67994027l-1.09226667-3.03407467c-4.24770347-10.49789653-8.192-19.23602987-12.62174826-28.15620693a94.11697813 94.11697813 0 0 0-25.06145174-31.85777813c-10.80130347-8.55608853-19.4180736-15.77718507-26.57848853-22.45214827-1.8204448-5.33997013-1.8204448-5.33997013-2.00248853-6.97837013-0.60681493-7.46382187-0.84954027-15.10968853-0.84954134-22.33078507 0-2.66998507 0.48545173-5.21860693 1.39567467-7.58518507 0.84954027-2.06317013 3.0340736-4.9152 5.94678507-8.0706368 5.0365632-5.0972448 12.01493333-10.13380693 22.14874026-16.20195626 14.26014827-8.3740448 30.46210347-14.9883264 48.18109654-19.6608 24.21191147-6.3108736 46.1179264-12.9251552 67.1137184-20.32829547 24.3332736-8.49540693 46.23928853-20.02488853 65.17191146-34.22435627 24.27259307-18.2044448 39.62500693-44.54020693 45.20770347-77.91502186 2.66998507-15.83786667 4.55111147-30.9475552 5.70405973-46.29997014 1.03158507-12.62174827 1.33499307-25.54690347 0.97090347-37.19774826a189.8116736 189.8116736 0 0 0-1.09226667-14.8669632l-0.303408-3.4588448c-0.30340693-3.64088853-0.42477013-5.21860693-0.66749546-7.16041494-1.94180693-13.71401493-4.30838507-25.00077013-7.28177814-34.46708053-5.33997013-17.65831147-12.9858368-29.85528853-23.84782186-38.1079712-9.40562987-7.16041493-22.02737813-12.13629653-43.99407467-17.23354027-15.53445973-3.64088853-34.83117013-7.09973333-57.2226368-10.25517013-23.48373333-3.5195264-47.5136-6.6749632-70.99733333-9.46631147-21.0564736-2.48794027-39.74637013-4.49042987-78.15774827-8.3133632-26.69985173-2.48794027-52.6108448-4.42974827-77.36888853-5.82542186l-4.42974827-0.1820448zM159.19786667 2.9202965299999732c22.7555552-3.3981632 45.6931552-6.4929184 68.44871146-9.10222293 20.99579307-2.48794027 41.87022187-4.7331552 76.15525867-8.1313184a1431.7188736 1431.7188736 0 0 1 121.6056896-6.91768853l5.21860693-0.1213632h3.88361494l5.21860693 0.0606816c14.9276448 0.1820448 31.2509632 0.72817813 48.90927467 1.5170368 23.0589632 1.21362987 47.6956448 3.0947552 72.81777706 5.46133333a4385.45066667 4385.45066667 0 0 1 76.03389654 8.07063787c22.63419307 2.66998507 45.57179307 5.76474027 68.32734826 9.16290346 19.23602987 2.73066667 35.43798507 5.58269653 48.12041494 8.49540694 0.48545173 2.54862187 0.97090347 5.21860693 1.33499306 7.88859306l0.24272534 3.51952534 0.2427264 2.73066666 0.24272533 2.48794134c0.48545173 4.42974827 0.60681493 6.06814827 0.66749653 8.1313184 0.30340693 8.192 0 17.59762987-0.78885973 27.9134816a436.66394027 436.66394027 0 0 1-4.611792 36.83365866c-1.5777184 9.52699307-3.82293333 13.83537813-7.88859307 16.86945174a144.3005632 144.3005632 0 0 1-38.77546666 20.1462528 743.9549632 743.9549632 0 0 1-59.28580694 17.9010368 286.5379552 286.5379552 0 0 0-73.5459552 30.28005866 193.2705184 193.2705184 0 0 0-43.26589653 32.9500448 123.97226667 123.97226667 0 0 0-25.66826667 39.01819307 115.78026667 115.78026667 0 0 0-8.00995626 42.4770368c0 9.52699307 0.36408853 19.4180736 1.09226666 30.03733333 0.60681493 7.16041493 1.7597632 13.53197013 3.3981632 20.02488854 5.0365632 19.4787552 14.7456 36.1661632 28.82370347 49.2126816 8.85949653 8.192 19.11466667 16.86945173 30.76551147 26.0930368 3.3981632 6.7963264 6.3108736 13.1072 8.67745173 18.68989653 3.0340736 9.04154027 6.12882987 18.0224 9.10222293 27.06394027l12.7431104 29.12711146 19.5394368 3.70157014a55.5842368 55.5842368 0 0 1 1.6990816 2.12385173c-0.1820448-0.2427264 1.21362987 3.1554368 2.36657814 6.9783712a25.24349653 25.24349653 0 0 1 1.27431146 6.1288288 41.0813632 41.0813632 0 0 1-2.18453333 9.9517632 12.56106667 12.56106667 0 0 1-2.48794133 4.30838507l-8.37404374 10.61925973-4.18702293 12.56106667V568.47170347c0 21.4205632-1.21362987 42.90180693-3.3981632 63.16942293a181.6196736 181.6196736 0 0 1-1.5777184 8.79881387l-1.03158507 5.76474133a442.67140693 442.67140693 0 0 1-6.00746666 27.42802987l-0.84954027 3.45884373a377.92426667 377.92426667 0 0 1-1.941808 7.88859307l-1.2136288 3.3374816a136.1085632 136.1085632 0 0 1-20.38897813 40.47454826 135.9265184 135.9265184 0 0 1-28.88438507 29.4912 154.49505173 154.49505173 0 0 1-33.37481493 18.50785174 164.14340693 164.14340693 0 0 1-35.01321494 9.7090368 250.7358816 250.7358816 0 0 1-26.0930368 2.48794026l-2.73066666 0.3640896-2.24521494-0.1213632-4.8545184-0.2427264a245.76 245.76 0 0 1-25.78962986-2.48794026c-11.95425173-1.94180693-23.66577813-5.1579264-34.83117014-9.6483552-11.2260736-4.42974827-22.45214827-10.67994027-33.49617813-18.62921494a134.71288853 134.71288853 0 0 1-28.76302187-29.30915626c-9.7697184-12.74311147-16.68740693-26.57848853-21.3598816-42.78044374a380.47288853 380.47288853 0 0 1-11.772208-54.55265173 579.9936 579.9936 0 0 1-3.39816213-63.10874133l-0.3640896-13.41060694-4.8545184-12.31834133-7.28177707-8.79881493a12.01493333 12.01493333 0 0 1-2.42725973-3.94429547 41.87022187 41.87022187 0 0 1-2.36657813-10.31585173 26.0930368 26.0930368 0 0 1 1.33499306-6.18951147c1.21362987-3.94429653 2.48794027-7.09973333 2.30589654-6.7963264 0.72817813-0.91022187 9.34494827-4.24770347 25.7896288-10.01244373l2.85202986-8.6167712 5.40065174-16.50536214 8.6167712-25.66826666c2.85202987-6.7963264 5.70405973-13.1678816 7.28177706-17.17285974 1.4563552-1.33499307 26.69985173-23.48373333 32.6466368-29.00574826 18.81125973-17.35490347 29.6125632-40.65659307 32.16118614-68.99484374 0.78885973-10.92266667 1.21362987-20.81374827 1.2136288-30.21937813 0-14.6242368-2.73066667-28.94506667-8.0706368-42.4770368-5.64337813-14.26014827-14.32082987-27.30666667-26.3357632-39.7463712-10.31585173-10.92266667-23.96918507-21.2385184-42.5377184-32.16118507a286.29522987 286.29522987 0 0 0-73.5459552-30.34074026c-21.5419264-5.58269653-40.96-11.4688-59.34648854-17.9010368a144.4219264 144.4219264 0 0 1-38.83614826-20.14625174c-4.00497813-3.0340736-6.25019307-7.34245973-7.88859307-16.8694528-5.46133333-33.49617813-6.85700693-60.6814816-4.12634027-80.0388736 0.48545173-3.4588448 0.97090347-6.6749632 1.5170368-9.46631146 12.74311147-2.91271147 28.82370347-5.76474027 47.99905174-8.49540694z"  horiz-adv-x="1080" />

    
    <glyph glyph-name="ic-department" unicode="&#59255;" d="M912.49777813 201.95555520000005V347.59111147H257.13777813v-145.63555627h145.6355552a72.81777813 72.81777813 0 0 0 72.81777814-72.81777707v-218.45333333a72.81777813 72.81777813 0 0 0-72.81777814-72.81777813H38.6844448a72.81777813 72.81777813 0 0 0-72.81777813 72.81777813v218.45333333a72.81777813 72.81777813 0 0 0 72.81777813 72.81777707h145.6355552V420.40888853h364.08888853V566.0444448000001H402.77333333a72.81777813 72.81777813 0 0 0-72.81777813 72.81777707V857.3155552a72.81777813 72.81777813 0 0 0 72.81777813 72.81777813h364.08888854a72.81777813 72.81777813 0 0 0 72.81777813-72.81777813v-218.45333333a72.81777813 72.81777813 0 0 0-72.81777813-72.81777707H621.22666667v-145.63555627h364.08888853v-218.45333333h145.63555627a72.81777813 72.81777813 0 0 0 72.81777706-72.81777707v-218.45333333a72.81777813 72.81777813 0 0 0-72.81777706-72.81777813h-364.0888896a72.81777813 72.81777813 0 0 0-72.81777707 72.81777813v218.45333333a72.81777813 72.81777813 0 0 0 72.81777707 72.81777707h145.63555626z"  horiz-adv-x="1160" />

    
    <glyph glyph-name="ic-environment" unicode="&#59256;" d="M268.468706 584.944941a33.852235 33.852235 0 0 0-33.551059 34.153412c0 18.853647 15.058824 34.153412 33.551059 34.153412h351.051294c18.552471 0 33.551059-15.299765 33.551059-34.153412 0-18.853647-15.058824-34.153412-33.551059-34.153412H268.468706z m0-360.929882a33.852235 33.852235 0 0 0-33.551059 34.093176c0 18.853647 15.058824 34.153412 33.551059 34.153412H500.555294c18.552471 0 33.551059-15.299765 33.551059-34.153412 0-18.853647-15.058824-34.093176-33.551059-34.093176H268.468706z m0 196.72847a33.852235 33.852235 0 0 0-33.551059 34.153412c0 18.853647 15.058824 34.153412 33.551059 34.153412h297.923765c18.492235 0 33.551059-15.299765 33.551058-34.153412 0-18.853647-15.058824-34.153412-33.551058-34.153412H268.468706z m275.877647-345.750588a54.211765 54.211765 0 0 0 53.729882-54.633412 54.211765 54.211765 0 0 0-53.729882-54.633411h-371.651765c-75.294118 0-136.312471 62.042353-136.31247 138.661647V755.531294C36.382118 832.150588 97.400471 894.192941 172.634353 894.192941h583.68c75.294118 0 136.312471-62.042353 136.312471-138.661647V473.750588a54.211765 54.211765 0 0 0-53.729883-54.633412 54.211765 54.211765 0 0 0-53.609412 54.633412V755.531294a29.153882 29.153882 0 0 1-28.912941 29.394824h-583.68a29.153882 29.153882 0 0 1-28.912941-29.394824v-651.143529c0-16.263529 12.890353-29.394824 28.912941-29.394824h371.651765zM1136.037647 167.333647c0-0.240941 4.879059-25.479529 4.879059-46.08 0-19.456-4.397176-43.369412-4.818824-46.019765-3.252706-16.926118-14.095059-27.888941-27.648-27.888941h-2.288941a50.597647 50.597647 0 0 1-50.477176-50.597647c0-6.927059 2.770824-15.36 4.397176-19.275294 6.625882-14.817882 1.505882-33.129412-11.866353-42.465882l-0.783059-0.481883-58.127058-32.225882a37.707294 37.707294 0 0 0-43.008 8.432941c-5.963294 6.505412-26.322824 25.118118-41.502118 25.118118-13.974588 0-33.731765-16.624941-41.140706-24.696471a37.647059 37.647059 0 0 0-41.743059-8.734117l-57.042823 31.86447-1.084236 0.722824a35.237647 35.237647 0 0 0-11.806117 42.586353 58.428235 58.428235 0 0 1 4.336941 19.154823 50.597647 50.597647 0 0 1-50.477177 50.597647h-1.987764c-13.733647 0-24.696471 10.962824-27.888941 27.888941a306.055529 306.055529 0 0 0-4.818824 41.381647v9.035295c0.602353 17.950118 4.096 37.767529 4.818824 41.562352 3.192471 17.046588 13.974588 28.009412 27.527529 28.009412h2.349176a50.597647 50.597647 0 0 1 50.477177 50.597647c0 8.734118-4.216471 18.793412-4.397177 19.275294a35.177412 35.177412 0 0 0 11.926589 42.465883l0.783059 0.542117 59.211294 32.527059a36.803765 36.803765 0 0 0 13.071058 3.373177h4.096c10.059294-0.602353 19.335529-4.698353 25.6-11.264 5.842824-6.144 25.840941-23.612235 40.598589-23.612236 14.576941 0 34.454588 17.167059 40.297411 23.130353a38.249412 38.249412 0 0 0 41.441883 8.312471l58.127059-32.225882 1.14447-0.783059a35.237647 35.237647 0 0 0 11.806118-42.586353s-4.336941-10.480941-4.336941-19.154824c0-27.888941 22.648471-50.597647 50.477176-50.597647h1.987765c13.733647 0 24.696471-10.962824 27.888941-27.888941z m-234.315294 34.514824c-45.357176 0-82.221176-36.743529-82.221177-81.980236a82.221176 82.221176 0 0 1 164.442353 0c0 45.176471-36.864 81.980235-82.221176 81.980236z"  horiz-adv-x="1144" />

    
    <glyph glyph-name="ic-EA" unicode="&#59257;" d="M425.372635-35.53655h-4.99887c-14.996612 0.240909-31.498908 0.722728-49.26598 1.565911a1827.29805 1827.29805 0 0 0-73.658059 5.601144c-25.897764 2.589776-51.434164 5.179553-76.850109 8.190921a2150.718964 2150.718964 0 0 0-69.261462 9.33524 595.287209 595.287209 0 0 0-49.68757 8.913649l-4.998871 1.204548a195.558232 195.558232 0 0 0-2.890913 16.261386c-2.890913 20.778439-1.445457 49.085297 4.215915 84.017165 2.529549 14.876157 7.950011 20.477302 11.744335 23.307988 11.684108 8.853422 25.656855 16.201159 41.436422 21.742076 18.429572 6.564782 38.184145 12.587518 60.40804 18.429572a277.648122 277.648122 0 0 1 71.489875 29.63186c18.188662 10.840924 31.137544 20.718211 40.713694 30.956862 11.142061 11.62388 19.453437 24.151171 24.632989 37.340962 4.878416 12.527291 7.407965 25.837537 7.407965 39.388693 0 8.913649-0.361364 18.670481-1.204547 30.173906-2.409094 26.078446-12.165926 47.398931-29.270496 63.238726a522.954152 522.954152 0 0 1-31.559136 26.981857 21.681849 21.681849 0 0 0-1.867048 3.131822 350.944817 350.944817 0 0 0-8.853421 19.513665l-9.154559 27.34322-8.43183 24.331853-21.982986 5.540917a61.672815 61.672815 0 0 0-2.04773 2.469322 45.170519 45.170519 0 0 0-4.035233 10.118196 28.427313 28.427313 0 0 0-1.746593 10.419333 52.759166 52.759166 0 0 0 3.071595 13.129564 20.597757 20.597757 0 0 0 3.794324 6.444327l10.419333 12.587518v16.140932c0 22.10344 1.14432 43.965972 3.432959 64.925092 2.28864 17.465934 6.3841 36.738689 12.226154 57.035309 4.998871 17.465934 12.587518 32.763683 23.187533 46.796657 9.335241 12.7682 19.694346 23.368215 30.715952 31.438681a165.143416 165.143416 0 0 0 72.634194 30.354589c8.190921 1.204547 16.803433 2.107958 27.102312 2.589776l5.119325 0.361364 6.62501-0.361364c10.238651-0.481819 18.851163-1.325002 26.740947-2.529549 12.948882-2.168185 25.5364-5.661372 37.401189-10.47956 11.804562-4.697734 23.729579-11.382971 35.413687-19.814801 11.081834-8.130693 21.621622-18.91139 31.318226-32.16141 10.238651-13.551156 17.646616-28.607995 22.705714-46.073929 5.721599-19.995483 9.877287-39.509147 12.045472-56.31258 2.409094-21.501167 3.613641-43.604607 3.613641-65.768275v-16.140932l10.359106-12.587518a21.982986 21.982986 0 0 0 4.215915-7.588647c1.264775-3.252277 2.168185-7.227283 2.710231-11.925017a26.981857 26.981857 0 0 0-1.626139-10.118196c-2.28864-7.227283-3.914778-10.057969-3.85455-10.057969l-2.951141-3.613641-21.982986-5.48069-16.86366-50.651208c-2.770458-6.625009-5.721599-13.310246-8.732967-19.39321-1.14432-2.228412-1.806821-3.252277-1.686366-3.252277-12.467063-9.937514-22.886396-18.851163-32.040955-27.343221-17.044342-15.900023-26.921629-37.461417-29.330723-64.142136a413.641497 413.641497 0 0 1-1.023865-29.270496c0-13.551156 2.469322-26.861402 7.407965-39.569375a113.106979 113.106979 0 0 1 25.837536-38.485282c-13.551156-21.621622-20.718211-46.495521-20.718211-72.212602v-154.784311c0-8.190921 0.361364-17.887525 0.963638-27.463675l-28.547768-1.806821c-18.068207-0.843183-34.630731-1.325002-49.627343-1.505684l-8.190921-0.060227v-4.637507l-2.168185 4.637507z m278.973124 601.671309a106.783106 106.783106 0 0 1-9.395468 20.115937c-0.361364 20.657984-1.806821 41.556877-4.035233 62.094407a488.56433 488.56433 0 0 1-14.936385 70.345554 229.104871 229.104871 0 0 1-37.100053 75.163743A236.813973 236.813973 0 0 1 588.227412 845.228337 253.557178 253.557178 0 0 1 532.697788 876.124972a265.60265 265.60265 0 0 1-53.240985 15.237521C478.131801 891.543175 445.729482 896 427.420365 896c-20.477302 0-48.422796-4.215915-49.68757-4.396597a263.795829 263.795829 0 0 1-53.903486-15.297749 255.966273 255.966273 0 0 1-56.011443-31.197772c-18.670481-13.67161-35.534141-30.715953-50.109162-50.711435-16.86366-22.284123-29.511406-47.760295-37.581872-75.886472-7.046601-24.572762-12.045472-48.483023-14.996612-71.068283-2.228412-19.995483-3.553414-40.593239-3.914778-61.190996-3.794324-6.263645-6.865919-12.647745-9.034104-18.91139-3.854551-10.238651-6.444327-21.260257-7.829556-33.486411-1.686366-14.454566 0-30.173906 5.059098-46.856885 4.938643-15.900023 10.901152-28.367086 18.429571-38.244373 6.3841-8.43183 12.7682-15.117067 19.694346-20.778438l3.312505-2.529549 1.806821-1.084093 4.637507-13.67161c3.673869-8.913649 7.648875-17.827298 12.165926-26.981857 7.106828-13.852292 15.538658-24.693217 25.897764-32.944364 9.937514-7.950011 18.91139-15.478431 26.500038-22.525032a14.81593 14.81593 0 0 0 1.144319-4.878417c0.602274-8.43183 0.843183-16.020477 0.843183-23.00685a18.068207 18.068207 0 0 0-1.204547-6.745464 27.343221 27.343221 0 0 0-6.022736-7.950012 98.772868 98.772868 0 0 0-21.079575-15.297749c-14.093202-8.43183-30.113679-15.05684-47.700068-19.634119-24.813672-6.564782-46.977339-13.310246-67.755778-20.657983a246.269668 246.269668 0 0 1-66.250094-35.11255c-25.054581-18.971618-40.713694-46.073929-46.495521-80.70466-7.347738-44.628472-8.793194-81.005797-4.577279-111.179704 5.601144-40.171648 14.936385-62.034179 32.16141-75.163743 9.817059-7.588647 22.946624-12.828427 45.411428-18.068207 15.839795-3.794324 35.233005-7.227283 57.577354-10.419333 23.850034-3.613641 47.760295-6.865919 71.730784-9.636378 25.897764-3.131823 52.036438-5.842054 78.777385-8.492057 27.343221-2.589776 53.542122-4.577279 77.934201-5.902281l11.021607-0.481819 0.120454-1.204547 100.158097 0.060227 4.697734 1.14432v0.180682l7.769329 0.361364c22.404577 1.204547 46.013702 2.951141 70.345555 5.179553v-0.120455l53.240985 5.540917-4.697734 44.989837c0 0.421592-4.155688 40.954604-4.155688 64.322818v154.784311c0 14.454566 6.685237 27.885267 18.309117 36.859143l17.586389 13.852293v22.043213l1.867048 34.148912-23.307988 14.093202a101.964918 101.964918 0 0 0-20.236392 14.936385 25.897764 25.897764 0 0 0-5.540917 7.407965 18.369344 18.369344 0 0 0-1.204548 6.865919c0 6.986374 0.240909 14.635248 0.782956 22.10344 0.301137 3.493187 0.963638 5.420462 0.843183 5.420462 7.950011 7.407965 16.923888 14.936385 26.921629 22.886397 10.238651 8.251148 18.790936 19.1523 26.018219 33.426183 4.33637 8.67274 8.311375 17.586389 12.045472 26.620493l4.637506 13.551155 1.867048 1.204547 3.43296 2.52955c6.625009 5.48069 13.069337 12.286381 19.634119 20.898893 7.347738 9.696605 13.370474 22.284123 18.369344 38.364827 4.938643 16.381841 6.625009 32.040955 4.938643 46.495521a134.668373 134.668373 0 0 1-7.468192 32.281864zM1032.645089 221.453587l-205.977565-205.977565 39.750056-39.750056 197.726417 197.666189a210.795754 210.795754 0 1 0-31.498908 48.001205zM747.227638 94.976135l79.500113-79.500113 39.750056 39.750056-79.500113 79.500113-39.750056-39.750056z"  horiz-adv-x="1084" />

    
    <glyph glyph-name="ic-change" unicode="&#59259;" d="M891.733333 542.890667h-84.138666c-17.066667 0-33.450667-6.314667-45.824-17.578667l-489.301334-448a203.946667 203.946667 0 0 0-137.728-52.906667H6.485333v128H134.826667c17.066667 0 33.536 6.4 45.909333 17.664l489.301333 447.914667a203.946667 203.946667 0 0 0 137.642667 52.906667h84.138667V818.346667l213.333333-199.68-213.333333-199.68V542.890667zM671.744 258.304l83.456-76.458667a68.010667 68.010667 0 0 1 45.909333-17.664h84.138667V288.085333l213.333333-199.68-213.333333-199.68v147.456h-84.138667a203.946667 203.946667 0 0 0-137.642666 52.906667l-84.053334 76.885333 92.330667 92.330667z m-301.226667 275.626667l-92.16-92.16L174.08 536.917333A68.010667 68.010667 0 0 1 128.256 554.666667H0V682.666667h128.256c51.2 0 100.522667-18.944 137.642667-52.906667l104.618666-95.829333z"  horiz-adv-x="1109" />

    
    <glyph glyph-name="ic-import" unicode="&#59260;" d="M721.83843104 383.00422974V600.98735668c0 48.09116968 38.42767314 87.08462122 85.83990916 87.08462122S893.54087934 649.07852575 893.54087934 600.98735668v-435.42310607C893.54087934 117.47308091000002 855.090575 78.47962940000002 807.67834019 78.47962940000002H378.41090392c-47.43486659 0-85.86253973 38.99345152-85.86253975 87.08462121s38.42767314 87.08462122 85.86253975 87.08462121H603.86230623c-67.37289922 91.72400473-130.58166974 155.99643787-188.22317948 192.95308714C348.13044043 488.87269626 278.56232008 511.86593258 205.78057893 515.44165291 158.4136059 517.7726599499999 121.88694792 558.5992343099999 124.1953244 606.64514103 126.48106907 654.69104835 166.74186445 691.73822235 214.0862063 689.40721468c102.97168049-5.04674361 201.14555978-37.52242763 293.27692459-96.56706829 70.99388191-45.48858845 142.12355028-115.46406891 214.47530015-209.83591665z"  horiz-adv-x="1024" />

    
    <glyph glyph-name="ic-resources" unicode="&#59261;" d="M68.266667 839.4752h273.066666a68.266667 68.266667 0 0 0 68.266667-68.266667v-273.066666a68.266667 68.266667 0 0 0-68.266667-68.266667H68.266667a68.266667 68.266667 0 0 0-68.266667 68.266667v273.066666a68.266667 68.266667 0 0 0 68.266667 68.266667z m0-546.133333h273.066666a68.266667 68.266667 0 0 0 68.266667-68.266667v-273.066667a68.266667 68.266667 0 0 0-68.266667-68.266666H68.266667a68.266667 68.266667 0 0 0-68.266667 68.266666v273.066667a68.266667 68.266667 0 0 0 68.266667 68.266667z m546.133333 0h273.066667a68.266667 68.266667 0 0 0 68.266666-68.266667v-273.066667a68.266667 68.266667 0 0 0-68.266666-68.266666H614.4a68.266667 68.266667 0 0 0-68.266667 68.266666v273.066667a68.266667 68.266667 0 0 0 68.266667 68.266667zM799.197867 875.997867l193.1264-193.058134a68.266667 68.266667 0 0 0 0-96.597333l-193.1264-193.058133a68.266667 68.266667 0 0 0-96.529067 0L509.5424 586.3424a68.266667 68.266667 0 0 0 0 96.597333L702.6688 875.997867a68.266667 68.266667 0 0 0 96.529067 0z"  horiz-adv-x="1024" />

    
    <glyph glyph-name="ic-new" unicode="&#59262;" d="M427.625 468.375V721.50000001a84.375 84.375 0 1 0 168.75-2e-8v-253.12499999h253.12499999a84.375 84.375 0 1 0 0-168.75h-253.12499999v-253.12499999a84.375 84.375 0 1 0-168.75 0v253.12499999H174.49999999a84.375 84.375 0 1 0 2e-8 168.75h253.12499999z"  horiz-adv-x="1024" />

    
    <glyph glyph-name="ic-release" unicode="&#59263;" d="M1632.29675238-89.57264984999995c-17.72307656-17.87076937-54.35076937-25.62461531-65.7230775-12.25846125a66.38769188 66.38769188 0 0 0-36.40615407 60.11076938v177.23076937c0 5.16923062 0.07384594 8.56615406 0.51692344 11.74153781-19.93846125-13.21846125-49.62461531-16.91076937-70.96615406-6.05538468L1247.04136769 281.06119703C1230.20444425 297.89811952 1224.44444425 309.41811952 1224.44444425 328.98735015c0 23.92615406 11.37230812 39.50769187 36.33230813 51.98769281L2065.25675238 784.02735015c23.85230813 11.88923062 50.06769188 11.88923062 60.11076843 0 22.37538469-11.22461531 28.28307656-26.28923062 27.84-64.46769187l-160.46769187-801.52615407c0-24.96-12.55384594-40.24615406-46.30153875-54.42461531H1930.41367488a62.99076938 62.99076938 0 0 0-17.50153875 1.69846125 38.91692344 38.91692344 0 0 0-18.97846125 10.11692344l-177.96923063 118.89230718-83.66769187-83.88923062z m218.06769187 595.34769281a60.99692344 60.99692344 0 0 0 87.65538469 0 60.92307656 60.92307656 0 0 0 0.59076937-87.13846219L1646.84444425 105.60273484000004v-10.48615407l18.46153875 15.87692344c21.63692344 21.63692344 47.55692344 25.40307656 75.84 11.07692344l149.90769188-95.4830775 121.25538468 593.20615406-599.70461531-293.24307656 117.41538469-74.43692344c20.97230813-10.48615406 32.04923062-37.80923063 29.68615406-60.40615406l290.65846125 314.14153875z"  horiz-adv-x="3387" />

    
    <glyph glyph-name="ic-edit" unicode="&#59264;" d="M42.666667 42.666667h853.333333v-170.666667H42.666667zM725.333333 860.672l180.992-180.992-60.330666-60.416L665.002667 800.426667 725.333333 860.672zM242.602667 377.941333l180.992-180.992-215.381334-34.389333 34.389334 215.381333z m361.984 362.069334L785.664 558.933333 483.84 257.28 302.933333 438.272l301.653334 301.738667z"  horiz-adv-x="1024" />

    
    <glyph glyph-name="ic-delete" unicode="&#59265;" d="M860.634585 595.810462c-24.260923 2.126769-43.716923-9.137231-50.25477-33.713231-4.568615-17.250462-3.780923-36.233846-3.780923-54.508308-0.315077-144.856615 0-289.634462-0.315077-434.491077-0.078769-75.933538-11.185231-87.197538-86.882461-87.433846-104.920615-0.472615-209.841231-0.236308-314.840616-0.157538-43.559385 0-87.197538-1.339077-130.678153 0.630153-45.686154 2.048-59.076923 17.329231-61.676308 63.803077-0.787692 14.257231-0.236308 28.593231-0.236308 42.850462 0 142.808615 0.315077 285.538462-0.157538 428.347077-0.157538 51.987692-16.147692 74.830769-49.467077 74.988307-33.555692 0.157538-48.679385-21.661538-48.836923-75.145846C113.193354 355.800615 112.641969 190.542769 113.823508 25.363692c0.630154-94.680615 47.576615-141.469538 140.603077-142.572307 83.101538-1.024 166.281846-0.236308 249.462153-0.236308h249.540924c107.756308 0.866462 151.079385 45.134769 151.394461 156.278154 0.393846 157.065846 0.157538 314.131692 0 471.197538 0 16.226462 0 32.768-2.678154 48.679385-3.780923 23.158154-19.928615 35.209846-41.432615 37.100308M930.109046 775.483077a1345.536 1345.536 0 0 1-136.428308 0.787692c-50.727385-1.811692-93.341538 10.870154-123.904 56.162462-21.897846 32.374154-53.326769 46.395077-92.16 45.134769C536.105354 876.307692 494.436431 875.677538 453.003815 877.883077 408.026585 880.088615 371.556431 866.540308 345.089969 827.785846c-26.387692-38.518154-63.960615-52.066462-108.307692-51.2-37.572923 0.787692-75.145846 0.157538-112.797539 0.078769-11.815385 0-23.867077 0.787692-35.524923-0.787692-31.113846-3.859692-49.388308-23.236923-49.07323-50.569846 0.315077-27.569231 18.274462-47.734154 50.09723-48.758154 61.282462-1.890462 122.722462 0.787692 184.004923-1.496615 45.292308-1.654154 81.841231 12.288 107.59877 50.963692 26.151385 39.227077 61.282462 55.138462 107.047384 50.412308 21.582769-2.205538 43.480615-1.024 65.299693-0.393846 27.805538 0.787692 52.539077-8.822154 66.953846-32.216616 38.439385-61.912615 94.523077-74.909538 159.744-68.450461 13.705846 1.417846 41.511385 0.472615 41.511384 0.630153 35.603692 0 71.207385-0.236308 106.811077 0.07877 21.582769 0.236308 38.124308 9.216 46.395077 31.035077 12.524308 33.319385-6.852923 65.929846-44.740923 68.371692M583.681969 137.924923c4.726154-31.507692 24.260923-50.097231 50.727385-48.679385 27.963077 1.496615 42.692923 18.747077 46.867692 45.922462 1.890462 11.972923 1.811692 24.260923 1.811692 36.470154 0.078769 105.708308 0.236308 211.416615-0.157538 317.046154 0 16.147692-0.787692 32.768-4.726154 48.206769-5.513846 22.212923-21.976615 33.240615-43.953231 33.713231-21.897846 0.551385-39.227077-9.846154-46.00123-31.192616-4.726154-14.966154-5.277538-31.822769-5.513847-47.891692-0.551385-52.775385-0.157538-105.708308-0.157538-158.562462V174.473846c0-12.209231-0.787692-24.576 1.102769-36.548923M384.317046 89.245538c24.891077-0.472615 41.353846 13.390769 47.655385 37.415385 3.544615 13.469538 3.859692 28.120615 3.938461 42.220308 0.236308 107.756308 0.078769 215.512615 0 323.190154 0 10.24 0.393846 20.48-1.260307 30.404923-5.435077 32.137846-24.103385 49.545846-51.2 48.206769-28.278154-1.417846-42.692923-19.219692-46.946462-46.08-2.205538-13.863385-1.575385-28.356923-1.575385-42.535385-0.157538-50.806154 0-101.612308 0-152.49723 0-52.775385-0.315077-105.708308 0-158.562462 0.157538-14.178462 0.157538-28.672 3.308308-42.299077 5.513846-24.260923 21.031385-38.990769 46.08-39.463385"  horiz-adv-x="1024" />

    
    <glyph glyph-name="ic-loaddown" unicode="&#59266;" d="M576.034133 384h191.965867L512 63.965867 256 384h192.034133V896h128v-512zM0 0h1024V-128H0v128z"  horiz-adv-x="1024" />

    
    <glyph glyph-name="ic-refresh" unicode="&#59267;" d="M655.600941 43.248941c-45.598118-17.287529-87.461647-25.720471-127.939765-25.72047-49.633882 0-98.243765 12.830118-148.178823 38.972235-82.341647 37.406118-139.986824 108.905412-140.528941 109.568l-12.348236 15.48047 111.796706 63.969883a83.968 83.968 0 0 1-3.614117 1.746823C206.004706 320.752941 50.477176 409.118118 30.72 418.936471a27.949176 27.949176 0 0 1-0.602353-4.577883v-351.472941l108.182588 61.801412 8.613647-13.492706c1.566118-2.409412 40.237176-60.235294 148.419765-128.361412 64.692706-40.779294 145.648941-63.247059 227.990588-63.247059 67.102118 0 131.915294 15.420235 187.572706 44.634353 110.351059 57.946353 188.536471 156.190118 216.304941 194.56l-79.329882 53.910589c-51.2-79.992471-122.518588-143.058824-192.271059-169.441883M875.821176 671.141647l-8.553411 13.552941c-0.421647 0.602353-39.755294 59.813647-148.419765 128.301177C654.155294 853.835294 573.078588 876.303059 490.797176 876.303059c-67.041882 0-131.915294-15.420235-187.51247-44.634353-110.351059-57.946353-188.596706-156.190118-216.304941-194.499765l79.269647-53.970823c51.2 80.052706 122.578824 143.058824 192.271059 169.502117 45.718588 17.287529 87.582118 25.660235 128 25.660236 49.633882 0 98.183529-12.769882 148.178823-38.912 80.956235-36.864 138.059294-106.616471 140.468706-109.628236l12.348235-15.48047-111.73647-63.969883 3.614117-1.686588c65.716706-37.586824 279.853176-159.804235 304.067765-171.730823a28.190118 28.190118 0 0 1 0.602353 4.638117V732.943059L875.821176 671.141647z"  horiz-adv-x="1024" />

    
    <glyph glyph-name="ic-online" unicode="&#59268;" d="M21.224727 605.649455a76.8 76.8 0 0 1 0-105.937455 70.749091 70.749091 0 0 1 102.4 0 715.589818 715.589818 0 0 0 1035.357091 0 70.842182 70.842182 0 0 1 102.4 0 76.8 76.8 0 0 1 0 105.937455 857.181091 857.181091 0 0 1-1240.157091 0M687.383273 540.485818c-20.48 1.861818-40.96 2.327273-61.346909 1.861818a549.236364 549.236364 0 0 1-380.090182-169.332363 76.8 76.8 0 0 1 0-105.937455 70.935273 70.935273 0 0 1 102.4 0 406.807273 406.807273 0 0 0 327.121454 124.090182 408.669091 408.669091 0 0 0 258.699637-124.090182 70.842182 70.842182 0 0 1 102.4 0 76.706909 76.706909 0 0 1 0 105.937455 551.377455 551.377455 0 0 1-349.184 167.563636M641.303273 173.614545c-80.058182 0-145.035636-67.118545-145.035637-150.062545 0-82.850909 64.884364-150.062545 145.035637-150.062545 80.058182 0 145.035636 67.211636 145.035636 150.062545 0 82.944-64.977455 150.155636-145.035636 150.155636"  horiz-adv-x="1303" />

    
    <glyph glyph-name="ic-closed" unicode="&#59277;" d="M611.59616942 398.49446212l222.00123133-222.06864751a74.15771484 74.15771484 0 1 0-104.89945804-104.83204262L506.69671063 293.59500405999995l-222.00123134-222.00123207A74.15771484 74.15771484 0 1 0 179.79602051 176.35839843999997l222.00123207 222.06864823L179.86343668 620.49569418A74.15771484 74.15771484 0 0 0 284.69547929 725.3277368L506.69671063 503.32650473 728.6979427 725.3277368a74.15771484 74.15771484 0 1 0 104.89945805-104.83204262L611.59616942 398.49446212z"  horiz-adv-x="1024" />

    
    <glyph glyph-name="ic-equipment" unicode="&#59278;" d="M793.827556 24.689778L691.768889 99.555556a362.552889 362.552889 0 0 0-81.521778-38.855112l139.320889-102.172444c0.170667-0.625778-0.284444-2.275556-1.877333-2.730667l-498.232889 0.113778c-0.568889 0.398222-1.024 1.991111 0 3.356445l138.410666 101.489777A362.097778 362.097778 0 0 0 306.460444 99.555556l-102.115555-74.865778a82.318222 82.318222 0 0 1-29.752889-91.989334c10.752-34.702222 40.561778-57.230222 75.946667-57.230222h497.152c35.328 0 65.194667 22.471111 75.889777 57.230222a82.318222 82.318222 0 0 1-29.752888 91.989334M454.883556 636.814222a70.940444 70.940444 0 1 0 0-141.824 70.940444 70.940444 0 0 0 0 141.824M514.787556 321.422222a173.511111 173.511111 0 1 1 0.113777 347.022222 173.511111 173.511111 0 0 1-0.113777-347.022222M643.413333 212.593778a310.954667 310.954667 0 0 0-105.528889-27.875556 320.853333 320.853333 0 0 0-25.884444-1.308444 321.422222 321.422222 0 0 0-25.941333 1.308444A314.538667 314.538667 0 0 0 197.632 497.777778 314.709333 314.709333 0 0 0 512 812.145778 314.709333 314.709333 0 0 0 826.368 497.777778a314.481778 314.481778 0 0 0-182.954667-285.184M512 896C292.408889 896 113.777778 717.368889 113.777778 497.777778c0-143.530667 76.515556-269.084444 190.748444-339.228445 27.306667-16.782222 56.547556-30.72 87.665778-40.504889a396.458667 396.458667 0 0 1 239.502222 0 396.003556 396.003556 0 0 1 87.779556 40.504889C833.649778 228.636444 910.222222 354.247111 910.222222 497.777778c0 219.591111-178.631111 398.222222-398.222222 398.222222"  horiz-adv-x="1024" />

    
    <glyph glyph-name="ic-small-window" unicode="&#59385;" d="M292.56337548 731.61428833h550.62103271C900.57236675 731.61428833 947.08947873 685.09717636 947.08947873 627.70921711v-487.41843422c0-57.38795857-46.51711197-103.90507122-103.90507054-103.90507122H292.56337548A103.90507122 103.90507122 0 0 0 188.65830427 140.29078288999995V627.70921711C188.65830427 685.09717636 235.17541622 731.61428833 292.56337548 731.61428833zM315.0634999 478.80389707v-316.01298975h505.62078319V478.80389707H315.0634999z"  horiz-adv-x="1117" />

    
    <glyph glyph-name="ic-hide-window" unicode="&#59387;" d="M2032.07143284 591.42821523h2074.28215227c124.45692914 0 207.42821523-82.9712861 207.42821524-207.42821523s-82.9712861-207.42821523-207.42821524-207.42821523H2032.07143284c-124.45692914 0-207.42821523 82.9712861-207.42821524 207.42821523s82.9712861 207.42821523 207.42821524 207.42821523z"  horiz-adv-x="6144" />

    
    <glyph glyph-name="p-ic-release_" unicode="&#59390;" d="M519.785204 48.556022l-113.964553-103.502963 53.376366 144.681562-406.889068 276.72018a58.273281 58.273281 0 0 0 8.146685 100.965471L967.719318 890.42464a58.273281 58.273281 0 0 0 81.555883-64.995409l-194.986227-907.442753a58.273281 58.273281 0 0 0-89.747086-35.925545l-244.756684 166.495089z m420.110737 717.442476L365.398848 154.240338l93.798169-64.016026 480.698924 675.774186z"  horiz-adv-x="1068" />

    
    <glyph glyph-name="p-ic-mirror" unicode="&#59391;" d="M502.62016 823.00928L578.7648 896v-952.36096L502.5792-128zM417.792 659.8656v-627.79392a36.78208 36.78208 0 0 0-36.78208-36.78208H46.16192a36.78208 36.78208 0 0 0-32.44032 54.0672L348.5696 677.15072a36.78208 36.78208 0 0 0 69.2224-17.28512zM663.552 660.39808c0 13.27104 7.70048 25.47712 19.94752 31.5392a37.43744 37.43744 0 0 0 49.52064-15.31904l335.62624-629.59616c2.6624-5.03808 4.096-10.60864 4.096-16.22016 0-19.61984-16.46592-35.51232-36.78208-35.51232h-335.62624c-20.31616 0-36.78208 15.89248-36.78208 35.51232V660.35712z"  horiz-adv-x="1105" />

    
    <glyph glyph-name="p-ic-setting" unicode="&#59392;" d="M1057.435826 489.516522c0.089043-0.489739 11.130435-58.590609 11.130435-105.872696 0-44.744348-10.017391-99.728696-11.130435-105.872696-7.301565-39.001043-31.922087-64.200348-62.686609-64.200347h-5.253565c-63.354435 0-114.866087-52.179478-114.866087-116.379826 0-15.849739 6.322087-35.261217 10.061913-44.210087a81.474783 81.474783 0 0 0-27.069217-97.680696l-1.691826-1.202087-132.318609-74.128696a82.810435 82.810435 0 0 0-34.905043-7.969391c-24.041739 0-47.638261 10.24-62.909218 27.38087-13.490087 14.959304-59.792696 57.744696-94.252522 57.744695-31.877565 0-76.933565-38.15513-93.71826-56.631652a85.214609 85.214609 0 0 0-62.419479-26.89113 79.693913 79.693913 0 0 0-32.500869 6.67826L213.303652-46.436174l-2.537739 1.691826a81.608348 81.608348 0 0 0-26.89113 97.947826c0.356174 0.801391 10.017391 24.130783 10.017391 44.076522 0 64.111304-51.556174 116.335304-114.910609 116.335304H74.395826c-31.254261 0-56.141913 25.199304-63.443478 64.24487C9.394087 286.45287 1.380174 331.686957 0.044522 372.958609L0.044522 393.750261c1.29113 41.271652 9.305043 86.906435 10.907826 95.588174 7.301565 39.17913 31.877565 64.422957 62.642087 64.422956h5.342608c63.354435 0 114.866087 52.224 114.866087 116.379826 0 20.034783-9.616696 43.186087-10.061913 44.165566a81.430261 81.430261 0 0 0 27.158261 97.769739l1.78087 1.246608L347.314087 888.297739c10.99687 4.808348 20.034783 7.123478 29.829565 7.657739L386.404174 896c22.928696-1.335652 43.987478-10.863304 58.278956-26.045217 13.267478-14.06887 58.768696-54.316522 92.249044-54.316522 33.213217 0 78.447304 39.490783 91.670261 53.292522a86.550261 86.550261 0 0 0 61.840695 25.644521c11.486609 0 22.394435-2.226087 32.50087-6.589217l132.229565-74.128696 2.537739-1.780869c30.408348-21.504 41.984-63.577043 26.935653-97.903305-0.044522-0.089043-10.017391-24.130783-10.017392-44.076521 0-64.111304 51.556174-116.335304 114.910609-116.335305h4.496696c31.254261 0 56.141913-25.199304 63.443478-64.244869zM524.466087 568.987826c-103.112348 0-186.991304-84.591304-186.991304-188.638609 0-104.002783 83.878957-188.594087 186.991304-188.594087 103.112348 0 186.991304 84.591304 186.991304 188.594087 0 104.047304-83.878957 188.638609-186.991304 188.638609z"  horiz-adv-x="1068" />

    
    <glyph glyph-name="p-ic-resources" unicode="&#59393;" d="M69.065347 838.812459h276.210189c38.142093 0 69.065347-30.923254 69.065347-69.116544V493.588121c0-38.142093-30.923254-69.065347-69.116544-69.065347H69.116544A69.065347 69.065347 0 0 0 0 493.588121V769.747113c0 38.142093 30.923254 69.065347 69.065347 69.065346z m0-552.420379h276.210189c38.142093 0 69.065347-30.923254 69.065347-69.116544v-276.158992c0-38.142093-30.923254-69.065347-69.116544-69.065347H69.116544A69.065347 69.065347 0 0 0 0-58.883456v276.21019c0 38.142093 30.923254 69.065347 69.065347 69.065346z m552.420379 0h276.210189c38.142093 0 69.065347-30.923254 69.065347-69.116544v-276.158992c0-38.142093-30.923254-69.065347-69.116544-69.065347H621.536923a69.065347 69.065347 0 0 0-69.065347 69.065347v276.21019c0 38.142093 30.923254 69.065347 69.065347 69.065346zM808.40758 875.777011l195.318234-195.318234c26.981051-26.981051 26.981051-70.652467 0-97.633518L808.40758 387.507025a69.065347 69.065347 0 0 0-97.633519 0l-195.318234 195.318234a69.065347 69.065347 0 0 0 0 97.633518L710.774061 875.777011a69.065347 69.065347 0 0 0 97.633519 0z"  horiz-adv-x="1024" />

    
    <glyph glyph-name="p-ic-apply" unicode="&#59394;" d="M96.628364 896h821.434181c30.254545 0 54.737455-24.529455 54.737455-54.737455v-914.52509c0-30.254545-24.529455-54.737455-54.737455-54.737455H96.628364C66.373818-128 41.890909-103.470545 41.890909-73.262545V841.262545C41.890909 871.517091 66.420364 896 96.628364 896zM206.196364 607.604364h551.005091c24.203636 0 43.845818 19.502545 43.845818 43.52a43.659636 43.659636 0 0 1-43.845818 43.52H206.196364a43.659636 43.659636 0 0 1-43.752728-43.52c0-24.017455 19.549091-43.52 43.752728-43.52z m0-190.464h492.869818c24.203636 0 43.752727 19.502545 43.752727 43.52a43.659636 43.659636 0 0 1-43.752727 43.566545H206.149818a43.659636 43.659636 0 0 1-43.752727-43.566545c0-24.017455 19.549091-43.52 43.752727-43.52z m0-190.464h328.610909c24.157091 0 43.752727 19.502545 43.752727 43.566545a43.659636 43.659636 0 0 1-43.752727 43.52h-328.610909a43.659636 43.659636 0 0 1-43.752728-43.52c0-24.064 19.549091-43.566545 43.752728-43.566545z"  horiz-adv-x="1024" />

    
    <glyph glyph-name="p-ic-satep-ic-state" unicode="&#59395;" d="M966.890057 275.6608c-47.689143 0-86.396343 39.701943-86.396343 88.649143 0 49.005714 38.677943 88.707657 86.396343 88.707657 47.689143 0 86.367086-39.701943 86.367086-88.6784 0-48.976457-38.677943-88.649143-86.367086-88.649143z m-50.848914-127.619657a14.1312 14.1312 0 0 0-6.261029 18.958628 14.1312 14.1312 0 0 0 18.783086 6.729143 14.1312 14.1312 0 0 0 6.261029-18.929371 14.1312 14.1312 0 0 0-18.783086-6.729143z m-137.479314-165.653943a19.777829 19.777829 0 0 0 3.2768 27.794286 19.777829 19.777829 0 0 0 27.8528-2.574629 19.777829 19.777829 0 0 0-3.306058-27.765028 19.777829 19.777829 0 0 0-27.823542 2.545371zM585.142857-102.312229a25.424457 25.424457 0 0 0 19.426743 30.222629 25.424457 25.424457 0 0 0 30.72-18.6368 25.424457 25.424457 0 0 0-19.426743-30.251886 25.424457 25.424457 0 0 0-30.72 18.666057z m-211.7632 12.873143c3.803429 16.471771 20.597029 26.682514 37.536914 22.762057 16.939886-3.8912 27.589486-20.450743 23.7568-36.922514-3.803429-16.501029-20.597029-26.711771-37.536914-22.820571-16.939886 3.920457-27.560229 20.48-23.7568 36.981028z m-182.154971 107.841829c12.580571 15.535543 35.722971 17.671314 51.697371 4.739657 15.945143-12.9024 18.695314-35.986286 6.114743-51.551086-12.580571-15.535543-35.752229-17.671314-51.697371-4.739657-15.9744 12.931657-18.724571 35.986286-6.114743 51.551086zM73.142857 199.4752c20.772571 10.093714 45.992229 1.053257 56.378514-20.245943s1.989486-46.782171-18.753828-56.905143c-20.772571-10.093714-45.992229-1.053257-56.378514 20.245943s-1.989486 46.782171 18.753828 56.905143z m-25.775543 216.005486c26.155886 0 47.396571-21.796571 47.396572-48.625372 0-26.858057-21.240686-48.625371-47.396572-48.625371-26.155886 0-47.367314 21.767314-47.367314 48.625371 0 26.8288 21.211429 48.625371 47.367314 48.625372z m68.4032 200.411428c26.272914-12.814629 36.922514-45.056 23.7568-72.031085-13.165714-26.975086-45.114514-38.473143-71.387428-25.629258-26.302171 12.814629-36.922514 45.056-23.786057 72.031086 13.165714 26.975086 45.143771 38.473143 71.416685 25.658514zM266.825143 770.779429c20.333714-25.102629 15.945143-62.376229-9.859657-83.265829-25.746286-20.860343-63.166171-17.437257-83.499886 7.665371-20.333714 25.131886-15.915886 62.405486 9.859657 83.295086 25.775543 20.860343 63.195429 17.437257 83.499886-7.694628zM468.114286 839.2704c7.9872-34.494171-14.277486-69.046857-49.678629-77.238857-35.401143-8.192-70.538971 13.165714-78.496914 47.659886-7.9872 34.464914 14.277486 69.046857 49.678628 77.238857C425.018514 895.093029 460.156343 873.764571 468.114286 839.241143z m211.792457-30.866286c-8.660114-37.507657-46.869943-60.679314-85.343086-51.785143-38.5024 8.864914-62.6688 46.460343-54.008686 83.968 8.630857 37.449143 46.840686 60.650057 85.343086 51.785143 38.473143-8.894171 62.639543-46.518857 54.008686-83.968z m174.226286-124.050285c-26.126629-32.299886-74.196114-36.717714-107.373715-9.888915-33.119086 26.858057-38.794971 74.781257-12.668343 107.081143 26.155886 32.299886 74.225371 36.717714 107.373715 9.859657 33.148343-26.8288 38.824229-74.781257 12.668343-107.081143z m104.535771-191.868343c-40.111543-19.543771-88.941714-2.048-109.012114 39.146057-20.0704 41.1648-3.832686 90.404571 36.278857 109.9776 40.082286 19.543771 88.912457 2.048 108.982857-39.146057 20.099657-41.1648 3.861943-90.404571-36.278857-109.9776z"  horiz-adv-x="1053" />

    
    <glyph glyph-name="ic-history" unicode="&#59396;" d="M498.346667-100.693333A498.346667 498.346667 0 1 0 498.346667 896a498.346667 498.346667 0 0 0 0-996.693333z m0 109.226666a389.12 389.12 0 1 1 0 778.24 389.12 389.12 0 0 1 0-778.24zM518.690133 397.994667h166.912c23.005867 0 41.642667-24.576 41.642667-54.818134 0-30.3104-18.6368-54.8864-41.642667-54.8864H451.242667c-22.9376 0-41.5744 24.576-41.5744 54.8864 0 2.048 0.068267 4.096 0.273066 6.144A51.2 51.2 0 0 0 409.6 354.645333V504.149333c0 27.989333 22.664533 50.5856 50.5856 50.5856h7.918933c27.921067 0 50.517333-22.664533 50.517334-50.5856v-106.0864z"  horiz-adv-x="1024" />

    
    <glyph glyph-name="ic-arrow-up-02" unicode="&#59402;" d="M881.40488529 672.42675228a71.44056207 71.44056207 0 0 0 53.04385116-21.69278871L1313.95755884 263.40653844999997a75.04325152 75.04325152 0 0 0 0-104.55464194 71.44056207 71.44056207 0 0 0-102.40835928 0L874.50611858 502.71709064 538.99609694 160.30830281a71.44056207 71.44056207 0 0 0-102.4083593 0c-28.3615963 28.82151405-28.3615963 75.65647483 0 104.55464191L816.09656055 652.19036985a71.44056207 71.44056207 0 0 0 65.3849778 20.23638243z"  horiz-adv-x="1755" />

    
    <glyph glyph-name="ic-mmanage" unicode="&#59415;" d="M842.146909 775.354182L742.865455 676.119273a372.363636 372.363636 0 1 1 65.256727-66.420364l99.374545 99.421091A509.905455 509.905455 0 0 0 1024 384c0-282.763636-229.236364-512-512-512S0 101.236364 0 384 229.236364 896 512 896c125.812364 0 241.012364-45.381818 330.146909-120.645818z m-165.701818-165.655273L539.741091 472.901818a93.090909 93.090909 0 1 1 63.162182-68.468363l138.705454 138.705454a279.272727 279.272727 0 1 0-65.070545 66.56z"  horiz-adv-x="1024" />

    
    <glyph glyph-name="ic-deploymentImport" unicode="&#59727;" d="M0.001024-84.6336V652.1856h1024v-736.8192a43.1104 43.1104 0 0 0-42.6496-43.3664H42.650624A43.1104 43.1104 0 0 0 0.001024-84.6336z m512.1024 200.448l170.5472 170.6496h-113.7664V457.216H455.169024v-170.7008H341.351424l170.5472-170.6496h0.2048zM487.629824 700.928H0.001024L101.786624 865.792C117.658624 885.248 142.029824 896 168.551424 896h319.0784v-195.072zM1024.001024 700.928h-487.6288V896h319.0784c26.5216 0 50.8928-11.7248 66.7648-30.208L1024.001024 700.928z"  horiz-adv-x="1024" />

    
    <glyph glyph-name="ic-Uploadthecloud" unicode="&#59728;" d="M1034.922667 536.192c-8.256 0-16.341333-0.298667-24.448-0.917333 0.917333 9.642667 1.386667 19.605333 1.386666 29.397333C1011.84 747.626667 863.829333 896 681.301333 896 498.752 896 350.72 747.626667 350.72 564.672c0-9.813333 0.469333-19.605333 1.237333-29.226667-7.04 0.426667-14.208 0.746667-21.397333 0.746667C148.010667 536.192 0 387.818667 0 204.864c0-169.642667 127.253333-309.44 291.306667-328.874667a6.122667 6.122667 0 0 1 5.653333-3.989333h320.789333V99.52h-121.450666c-30.698667 0-48.874667 34.453333-31.616 59.861333l186.368 274.538667a38.058667 38.058667 0 0 0 63.082666 0l186.368-274.538667c17.258667-25.408-0.917333-59.861333-31.616-59.861333h-125.717333V-128h325.504a5.973333 5.973333 0 0 1 5.653333 3.989333C1238.250667-104.426667 1365.333333 35.349333 1365.333333 204.864c0 182.954667-147.861333 331.328-330.410666 331.328z"  horiz-adv-x="1365" />

    
    <glyph glyph-name="ic-deploymentSure" unicode="&#59729;" d="M753.054343-25.600051H34.718703a32.307184 32.307184 0 0 0-24.422388 11.059194 37.068781 37.068781 0 0 0-10.291195 26.163187v148.991926c0 10.035195 3.430398 18.790391 10.291195 26.111987a32.358384 32.358384 0 0 0 24.422388 11.110394h671.129264c-2.969599-17.151991-4.505598-34.815983-4.505598-52.735974 0-63.180768 19.04639-121.855939 51.711974-170.700714zM972.804634 450.201311a305.305447 305.305447 0 0 1-69.478366-16.383992v38.604781H347.448146v-74.444763h486.604557a308.940646 308.940646 0 0 1-75.622362-74.495963H34.718703a32.358384 32.358384 0 0 0-24.422388 11.059195 37.119981 37.119981 0 0 0-10.291195 26.163187v148.991925c0 10.086395 3.430398 18.790391 10.291195 26.163187a32.358384 32.358384 0 0 0 24.422388 11.059195h903.321148c9.420795 0 17.561591-3.686398 24.473588-11.059195a37.068781 37.068781 0 0 0 10.291195-26.163187v-59.49437z m0 408.575796v-148.991926a37.068781 37.068781 0 0 0-10.291195-26.111987 32.358384 32.358384 0 0 0-24.473588-11.110394H34.718703a32.358384 32.358384 0 0 0-24.422388 11.059194A37.119981 37.119981 0 0 0 0.00512 709.836381V858.777107C0.00512 868.863502 3.435518 877.567497 10.296315 884.940294A32.358384 32.358384 0 0 0 34.718703 895.999488h903.321148c9.420795 0 17.561591-3.686398 24.473588-11.059194A37.068781 37.068781 0 0 0 972.804634 858.777107zM694.839973 747.007562h208.486295V821.503525H694.788773v-74.444763zM1024.004608 383.999744c-141.414329 0-255.999872-114.585543-255.999872-255.999872s114.585543-255.999872 255.999872-255.999872 255.999872 114.585543 255.999872 255.999872-114.585543 255.999872-255.999872 255.999872z m-35.942382-400.691l-131.020735 145.100728 40.95998 44.543978 89.804755-99.430351 162.611119 176.895912 40.55038-44.953578-202.905499-222.207889z"  horiz-adv-x="1280" />

    
    <glyph glyph-name="uploadClose" unicode="&#59730;" d="M563.712 384l156.964571 156.964571a36.571429 36.571429 0 1 1-51.712 51.785143L512 435.712 355.035429 592.749714a36.571429 36.571429 0 1 1-51.785143-51.785143L460.288 384 303.250286 227.035429a36.571429 36.571429 0 1 1 51.785143-51.712L512 332.288l156.964571-156.964571a36.571429 36.571429 0 1 1 51.712 51.712L563.712 384zM512 896a512 512 0 0 0 512-512 512 512 0 0 0-512-512 512 512 0 0 0-512 512 512 512 0 0 0 512 512z"  horiz-adv-x="1024" />

    
    <glyph glyph-name="Exclamationmark" unicode="&#59731;" d="M512 896c282.752 0 512-229.248 512-512s-229.248-512-512-512S0 101.248 0 384 229.248 896 512 896z m41.813333-228.906667a42.666667 42.666667 0 0 1-85.333333 0v-318.634666a42.666667 42.666667 0 1 1 85.333333 0V667.093333z m0-469.333333a42.666667 42.666667 0 1 1-85.333333 0 42.666667 42.666667 0 0 1 85.333333 0z"  horiz-adv-x="1024" />

    
    <glyph glyph-name="ic-uploadClose_norma" unicode="&#59732;" d="M602.112 384l399.1552-399.1552a62.6688 62.6688 0 0 0 0-88.6784l-1.4336-1.4336a62.6688 62.6688 0 0 0-88.6784 0L512 293.9904 112.8448-105.2672a62.6688 62.6688 0 0 0-88.6784 0l-1.4336 1.4336a62.6688 62.6688 0 0 0 0 88.6784L421.9904 384 22.7328 783.1552a62.6688 62.6688 0 0 0 0 88.6784L24.1664 873.2672a62.6688 62.6688 0 0 0 88.6784 0L512 474.0096 911.1552 873.2672a62.6688 62.6688 0 0 0 88.6784 0l1.4336-1.4336a62.6688 62.6688 0 0 0 0-88.6784L602.0096 384z"  horiz-adv-x="1024" />

    
    <glyph glyph-name="refresh" unicode="&#59733;" d="M858.754324 309.604481a349.548 349.548 0 0 0-101.603632-247.786842 342.380612 342.380612 0 0 0-245.266443-102.627545 342.380612 342.380612 0 0 0-245.18768 102.627545 349.941813 349.941813 0 0 0-101.603632 247.786842 349.705525 349.705525 0 0 0 101.603632 247.786843 342.774425 342.774425 0 0 0 245.18768 102.706308c0.393813 0-74.666855-99.792095-74.666855-99.792095a43.791953 43.791953 0 0 1 34.182927-70.177393 43.004328 43.004328 0 0 1 34.340453 17.091464l135.78656 179.105938a43.791953 43.791953 0 0 1-7.955013 61.119704L453.521233 886.854885a42.846803 42.846803 0 0 1-60.489605-8.033775 43.791953 43.791953 0 0 1 7.955013-61.198467l91.206982-70.571205a423.663518 423.663518 0 0 1-148.861136-34.025403A435.792944 435.792944 0 0 1 112.873396 480.204069 438.077056 438.077056 0 0 1 78.769231 309.683244a438.077056 438.077056 0 0 1 126.886396-309.536647A430.830906 430.830906 0 0 1 512.041774-128c58.441779 0 115.229546 11.578088 168.630525 34.419215a435.792944 435.792944 0 0 1 230.380329 232.664442A438.077056 438.077056 0 0 1 945.156793 309.525719a43.476903 43.476903 0 0 1-43.161853 43.791953 43.476903 43.476903 0 0 1-43.240616-43.713191z"  horiz-adv-x="1024" />

    
    <glyph glyph-name="ic-arrow-left" unicode="&#59734;" d="M270.93846113 378.46153886a64.52307685 64.52307685 0 0 1 19.5923083-47.90769257L640.3538463-12.207692579999957a67.77692316 67.77692316 0 0 1 94.43076942 0 64.52307685 64.52307685 0 0 1-1e-8 92.4923083L424.21538428 384.69230742 733.46923058 687.71538428a64.52307685 64.52307685 0 0 1-1e-8 92.4923083c-26.03076943 25.61538428-68.33076943 25.61538428-94.43076944 0l-349.82307686-342.76153886a64.52307685 64.52307685 0 0 1-18.27692313-59.0538463z"  horiz-adv-x="1024" />

    
    <glyph glyph-name="ic-export" unicode="&#59912;" d="M432.74533332 384.99599999L432.74533332 167.01300000000003c0-48.092-38.428-87.085-85.84000001-87.085s-85.863 38.993-85.86299999 87.085l-1e-8 435.423c0 48.09 38.45 87.084 85.863 87.084L776.17233331 689.52c47.43500001 0 85.863-38.993 85.86300001-87.084s-38.428-87.085-85.86300001-87.085l-225.451 0C618.09333331 423.627 681.30233331 359.355 738.94333332 322.398c67.509-43.27 137.077-66.26399999 209.85799999-69.84 47.36699999-2.33 83.89400001-43.157 81.586-91.203-2.286-48.046-42.547-85.093-89.89099999-82.762-102.972 5.047-201.14599999 37.522-293.27700001 96.567-70.994 45.488-142.124 115.464-214.47499999 209.836z"  horiz-adv-x="1289" />

    
    <glyph glyph-name="eyes-open" unicode="&#59931;" d="M111.15641018 349.38461572999995a64.45384629 64.45384629 0 0 0 113.12307685 61.40769169 643.91538427 643.91538427 0 0 1 566.30769258-336.18461484 643.98461573 643.98461573 0 0 1 568.03846114 339.71538427 64.45384629 64.45384629 0 0 0 113.53846201-60.71538427 772.75384629 772.75384629 0 0 0-681.64615371-407.56153887A772.75384629 772.75384629 0 0 0 111.15641018 349.38461572999995zM111.15641018 430.59230742a64.45384629 64.45384629 0 0 1 113.12307685-61.4076917 643.91538427 643.91538427 0 0 0 566.30769258 336.25384542 643.98461573 643.98461573 0 0 0 568.03846114-339.78461485 64.45384629 64.45384629 0 0 1 113.53846201 60.71538428A772.75384629 772.75384629 0 0 1 790.51794905 834 772.75384629 772.75384629 0 0 1 111.15641018 430.59230742zM779.51025647 255.43846112999995c71.16923057 0 128.76923057 57.53076943 128.76923056 128.56153887a128.7 128.7 0 0 1-128.76923056 128.56153887c-71.1 0-128.76923057-57.53076943-128.76923057-128.56153887s57.66923057-128.56153887 128.76923057-128.56153887z m0-128.56153798A257.4 257.4 0 0 0 521.97179445 384a257.4 257.4 0 0 0 257.53846202 257.12307685A257.4 257.4 0 0 0 1037.11794905 384a257.4 257.4 0 0 0-257.53846201-257.12307685z"  horiz-adv-x="1575" />

    
    <glyph glyph-name="eye-closed" unicode="&#59932;" d="M1090.07794423 191.13257167999996a81.17967568 81.17967568 0 0 0 17.81992881-50.75979697v-123.83950518a83.42966602 83.42966602 0 0 0-84.23966338-82.52966953 83.42966602 83.42966602 0 0 0-84.2396625 82.52966953V140.37277471000004c0 19.16992354 6.74997276 36.89985234 17.99992793 50.93979609a1026.26589463 1026.26589463 0 0 0-278.99888379 57.59976973 81.53967393 81.53967393 0 0 0-24.29990332-51.0297961l-89.36964229-87.56964932a85.4996581 85.4996581 0 0 0-119.15952363 0 81.35967481 81.35967481 0 0 0 0 116.72953242l88.37964668 86.57965372A1002.14599131 1002.14599131 0 0 0 136.44175868 707.100508 81.71967305 81.71967305 0 0 0 170.19162421 819.06005977a85.13965987 85.13965987 0 0 0 114.20954297-33.11986729c146.42941464-263.96894443 428.30828701-431.72827295 740.42703808-431.72827295 313.91874404 0 597.23761114 169.8293206 742.85702842 436.22825449A85.04965987 85.04965987 0 0 0 1881.71477753 824.10003955c41.03983565-21.59991387 56.42977412-71.54971347 34.46986201-111.68955351a1001.96599219 1001.96599219 0 0 0-401.9383916-399.59840127l87.4796502-85.85965635a81.35967481 81.35967481 0 0 0 0-116.7295333 85.4996581 85.4996581 0 0 0-119.06952364 0l-89.36964316 87.56964931a81.53967393 81.53967393 0 0 0-24.29990244 50.30979874c-88.4696458-31.49987432-182.24927138-50.93979609-278.99888379-57.05977149z"  horiz-adv-x="2048" />

    
    <glyph glyph-name="pic-uf" unicode="&#60038;" d="M431.535158 297.633684l-131.610947 75.991579 115.523368 200.084211 131.610947-75.991579 12.90779 22.339368a25.573053 25.573053 0 0 0 34.896842 9.350737l602.812631-348.025263c12.207158-7.060211 16.410947-22.689684 9.350737-34.92379l-141.312-244.736a25.573053 25.573053 0 0 0-34.923789-9.350736L428.005053 240.370526a25.573053 25.573053 0 0 0-9.350737 34.92379l12.880842 22.312421z m-47.346526 145.92l-32.094316-55.565473 32.875789-18.997895 32.121263 55.565473-32.902736 18.997895z m44.921263 77.824l-32.094316-55.592421 32.875789-18.997895 32.121264 55.592421-32.902737 18.997895z m327.356631-286.504421l34.816 60.308211-10.940631 6.305684-35.893895-62.194526c-11.695158-20.210526-25.977263-25.492211-42.846316-15.737264-17.515789 10.132211-20.210526 25.653895-8.111158 46.618948l35.247158 61.116631-10.913684 6.305685-35.732211-61.871158c-15.656421-27.136-11.533474-47.616 12.368843-61.44 25.061053-14.443789 45.729684-7.599158 61.978947 20.587789z m54.703158-85.692631l5.712842 9.889684-46.726737 26.974316 0.161685 0.269473 36.648421 9.862737c14.982737 4.122947 25.977263 8.272842 32.929684 12.449684 6.952421 4.176842 12.261053 9.431579 15.898947 15.791158 4.769684 8.245895 5.955368 16.276211 3.584 24.064-2.371368 7.814737-7.841684 14.174316-16.437894 19.132632a48.020211 48.020211 0 0 1-32.336843 6.251789l-6.709894-11.587368c12.665263 3.045053 23.444211 2.021053 32.309894-3.098948 6.197895-3.584 10.051368-7.949474 11.506527-13.069473 1.482105-5.12 0.485053-10.671158-2.964211-16.626527a35.732211 35.732211 0 0 0-11.398737-12.126315c-4.742737-3.125895-14.740211-6.844632-30.019368-11.102316l-46.053053-12.853895-5.658947-9.835789 59.553684-34.384842z m125.709474 48.397473l5.874526 10.159158-50.06821 28.914526-58.260211-100.890947 10.940632-6.305684 25.977263 45.002105 36.24421-20.938105 5.874527 10.159158-36.244211 20.938105 20.533895 35.570526 39.127579-22.608842zM249.074526 640.134737l23.336421-13.473684-89.869473-155.648-23.336421 13.473684zM1005.406316 351.663158l-396.018527 228.675368a76.099368 76.099368 0 0 1-87.740631-8.623158l-135.356632 78.147369L219.432421 360.825263l135.356632-78.147368a76.099368 76.099368 0 0 1 36.378947-80.303158l396.018526-228.648421c-152.845474-104.744421-356.864-120.023579-526.255158-22.231579C24.710737 87.848421-54.703158 392.542316 83.536842 631.969684 221.776842 871.397053 525.312 954.933895 761.532632 818.553263c169.391158-97.818947 258.155789-282.138947 243.873684-466.863158zM239.966316 675.031579L124.496842 474.947368l76.746105-44.328421 115.523369 200.084211L239.966316 675.031579z"  horiz-adv-x="1212" />

    
    <glyph glyph-name="pic-qrcode" unicode="&#60039;" d="M148.167111 55.011556c0-18.062222 14.592-32.654222 32.654222-32.654223h228.750223v261.404445H148.195556v-228.750222z m98.702222 130.844444h65.365334v-65.365333H246.840889v65.393777z m228.124445-32.796444h65.365333v-130.702223h-65.393778V153.031111z m-326.826667 261.404444h130.702222v-65.393778H148.167111v65.422222z m326.826667 0h-130.730667v-65.308444h130.702222v-130.702223h65.308445V545.166222h-65.308445v-130.702222z m130.673778-130.702222h130.702222v-130.702222h-130.702222v130.702222zM409.6 741.262222H180.821333c-18.062222 0-32.654222-14.592-32.654222-32.654222v-228.750222h261.404445V741.262222z m-97.336889-163.271111H246.840889V643.384889h65.422222v-65.393778z m522.183111 163.271111h-228.750222v-261.404444h261.404444V708.608c0 18.062222-14.592 32.654222-32.654222 32.654222z m-64.739555-163.271111H704.284444V643.384889h65.393778v-65.393778z m-294.684445 163.271111h65.365334v-130.702222h-65.393778V741.262222z m195.982222-326.798222h196.124445v-65.393778h-196.124445v65.422222z m130.730667-326.712889v196.010667h65.393778v-228.750222c0-18.062222-14.620444-32.654222-32.682667-32.654223h-228.750222v65.393778h196.039111zM938.979556-121.457778h-179.740445v71.907556h179.740445v179.740444h71.879111v-251.619555h-71.879111z m-862.72 71.907556H256v-71.879111H4.380444v251.619555H76.231111v-179.740444z m862.72 862.72h-179.740445V885.048889h251.619556V633.457778h-71.879111V813.169778zM76.259556 885.048889H256v-71.879111H76.259556v-179.740445H4.380444V885.048889H76.231111z"  horiz-adv-x="1024" />

    
    <glyph glyph-name="pic-acount" unicode="&#60040;" d="M670.360216 453.050811c11.291676 26.900757 8.994595 58.312649-1.577513 97.529081-10.765838 39.908324-52.03027 62.076541-90.914595 51.172324a73.949405 73.949405 0 0 1-51.476757-52.113297v46.522811c0 17.518703 14.169946 31.716324 31.688649 31.716324h112.363243c17.491027 0 31.688649-14.197622 31.688649-31.716324v-111.422271c0-17.518703-14.197622-31.688649-31.688649-31.688648h-0.083027z m-261.12-79.484541a227.355676 227.355676 0 0 1-50.729513-174.827243h-56.098595a31.716324 31.716324 0 0 0-31.716324 31.716324v111.422271c0 17.491027 14.197622 31.688649 31.716324 31.688648h106.828108z m369.664 0h147.206919c17.491027 0 31.688649-14.197622 31.688649-31.688648v-111.422271c0-17.518703-14.197622-31.716324-31.688649-31.716324h-64.595027l-52.943567 124.319135a227.244973 227.244973 0 0 1-29.668325 50.508108z m258.795243 254.311784V850.445838c0 17.518703 14.197622 31.716324 31.716325 31.716324h112.363243c17.491027 0 31.688649-14.197622 31.688649-31.716324V484.739459c0-17.518703-14.197622-31.688649-31.688649-31.688648H813.747892a31.716324 31.716324 0 0 0-31.716324 31.688648v111.422271c0 17.518703 14.197622 31.716324 31.716324 31.716324h223.951567zM46.771892 882.162162h112.363243c17.518703 0 31.688649-14.197622 31.688649-31.716324v-111.42227c0-17.491027-14.169946-31.688649-31.688649-31.688649h-112.363243A31.716324 31.716324 0 0 0 15.027892 739.023568V850.445838C15.027892 867.964541 29.225514 882.162162 46.771892 882.162162z m-1.190054-251.793297h112.363243c17.491027 0 31.688649-14.197622 31.688649-31.688649v-111.42227c0-17.518703-14.197622-31.716324-31.688649-31.716324h-112.363243A31.716324 31.716324 0 0 0 13.837838 487.257946v111.42227c0 17.491027 14.197622 31.688649 31.716324 31.688649z m0-251.793297h112.363243c17.491027 0 31.688649-14.169946 31.688649-31.688649v-111.42227c0-17.518703-14.197622-31.716324-31.688649-31.716325h-112.363243A31.716324 31.716324 0 0 0 13.837838 235.464649v111.42227c0 17.518703 14.197622 31.688649 31.716324 31.688649zM302.384432 882.162162h112.363244c17.518703 0 31.716324-14.197622 31.716324-31.716324v-111.42227c0-17.491027-14.197622-31.688649-31.688649-31.688649h-112.363243A31.716324 31.716324 0 0 0 270.668108 739.023568V850.445838c0 17.518703 14.197622 31.716324 31.716324 31.716324z m0-254.284108h112.363244c17.518703 0 31.716324-14.197622 31.716324-31.716324v-111.422271c0-17.518703-14.197622-31.688649-31.688649-31.688648h-112.363243A31.716324 31.716324 0 0 0 270.668108 484.739459v111.422271c0 17.518703 14.197622 31.716324 31.716324 31.716324zM558.107676 882.162162h112.363243c17.491027 0 31.688649-14.197622 31.688649-31.716324v-111.42227c0-17.491027-14.197622-31.688649-31.688649-31.688649h-112.363243a31.716324 31.716324 0 0 0-31.716325 31.688649V850.445838c0 17.518703 14.197622 31.716324 31.716325 31.716324z m255.667892 0h112.363243c17.491027 0 31.688649-14.197622 31.688648-31.716324v-111.42227c0-17.491027-14.197622-31.688649-31.688648-31.688649h-112.363243a31.716324 31.716324 0 0 0-31.716325 31.688649V850.445838c0 17.518703 14.197622 31.716324 31.716325 31.716324z m255.667891-508.595892h112.363244c17.491027 0 31.688649-14.197622 31.688648-31.688648v-111.422271c0-17.518703-14.197622-31.716324-31.688648-31.716324h-112.363244a31.716324 31.716324 0 0 0-31.716324 31.716324v111.422271c0 17.491027 14.197622 31.688649 31.716324 31.688648zM545.625946 388.538811a163.618595 163.618595 0 0 0 204.080432-90.693189l75.692973-178.36973a163.590919 163.590919 0 0 0-86.65254-214.486487l-14.336-6.088648a163.590919 163.590919 0 0 0-214.486487 86.65254l-75.720648 178.36973a163.618595 163.618595 0 0 0 75.38854 209.228108c5.618162-7.278703 12.48173-14.557405 20.535352-21.808432 7.444757-6.697514 19.289946-6.088649 26.485621 1.328432a17.629405 17.629405 0 0 1-0.442811 25.572324 171.976649 171.976649 0 0 0-10.544432 10.295352z m5.618162-62.187243a23.579676 23.579676 0 0 1-12.48173-30.941406l23.662703-55.794162a23.579676 23.579676 0 1 1 43.450811 18.432l-23.718054 55.794162a23.579676 23.579676 0 0 1-30.91373 12.509406z m-1.577513 45.166702c3.708541-3.321081 3.819243-9.077622 0.221405-12.786162a9.631135 9.631135 0 0 0-13.256649-0.664216c-39.078054 35.203459-47.685189 69.244541-22.666378 99.383351 12.09427 14.585081 25.932108 18.155243 51.338378 18.487352 18.044541 0.249081 22.860108 1.024 25.904433 4.455783 4.815568 5.479784 4.981622 20.424649-2.573838 48.51546a9.354378 9.354378 0 0 0 6.752865 11.264 9.077622 9.077622 0 0 0 11.402378-6.144c8.966919-33.459892 8.745514-53.414054-1.522162-65.065514-4.898595-5.590486-11.513081-8.634811-19.843459-9.990919-5.341405-0.885622-7.610811-0.968649-20.535352-1.134702-20.064865-0.276757-29.170162-2.629189-36.47654-11.402379-17.657081-21.31027-11.623784-45.332757 21.254919-74.918054z"  horiz-adv-x="1217" />

    
    </font>
</defs>
</svg>
